<?xml version="1.0" encoding="utf-8"?>
<!-- Generator: Adobe Illustrator 23.0.1, SVG Export Plug-In . SVG Version: 6.00 Build 0)  -->
<svg version="1.1" id="Layer_1" xmlns="http://www.w3.org/2000/svg" xmlns:xlink="http://www.w3.org/1999/xlink" x="0px" y="0px"
	 viewBox="0 0 2160 1424" style="enable-background:new 0 0 2160 1424;" xml:space="preserve">
<style type="text/css">
	.st0{fill:#FFF9F5;}
	.st1{fill:#CCCFD4;}
	.st2{fill:#192C52;}
	.st3{fill:#0C1A3B;}
	.st4{fill:#1F3A59;}
	.st5{fill:#070F36;}
	.st6{fill:#E57772;}
	.st7{fill:#0C1B3C;}
	.st8{fill:#FDAD91;}
	.st9{fill:#346E94;}
	.st10{fill:#318691;}
	.st11{fill:#40989E;}
	.st12{fill:#E57873;}
	.st13{fill:#D2F7F6;}
	.st14{fill:#4D4E54;}
	.st15{fill:none;stroke:#0C1B3C;stroke-linecap:round;stroke-miterlimit:10;}
	.st16{fill:none;stroke:#91293F;stroke-linecap:round;stroke-miterlimit:10;}
	.st17{fill:#0F1D3D;}
	.st18{fill:#1E3A5E;}
	.st19{fill:#466482;}
	.st20{fill:#13274A;}
	.st21{fill:#95405D;}
	.st22{fill:#7D3455;}
	.st23{fill:#1A202B;}
	.st24{fill:none;stroke:#4A1934;stroke-linecap:round;stroke-miterlimit:10;}
	.st25{fill:#4A1934;}
	.st26{fill:#5D7191;}
	.st27{fill:#1B3359;}
	.st28{fill:#F79234;}
	.st29{fill:#FAC98F;}
	.st30{fill:#F2AC79;}
	.st31{fill:#FFFFFF;}
	.st32{fill:#28598A;}
	.st33{fill:none;stroke:#28598A;stroke-width:0.5;stroke-miterlimit:10;}
	.st34{fill:#466E9C;}
	.st35{fill:#FEAC40;}
	.st36{fill:#FFD991;}
	.st37{fill:#BA2F4A;}
	.st38{fill:#346E93;}
	.st39{fill:#390545;}
	.st40{fill:#4F0946;}
	.st41{fill:#FCBC5B;}
	.st42{fill:#11244A;}
	.st43{fill:#E4E7EB;}
	.st44{fill:#255E73;}
	.st45{fill:#4FABAB;}
	.st46{fill:#C1DEE6;}
	.st47{fill:#5F9CBA;}
</style>
<g>
	<path class="st0" d="M800.77,53.51c-212.23,26.2-421.49,126.2-544.22,298.46c-122.73,172.26-141.99,420.46-17.51,591.5
		c92.54,127.19,246.69,196.9,400.01,238.53c308.5,83.75,642.51,74.23,945.56-26.99c94.39-31.52,187.02-72.45,263.87-134.89
		s137.1-148.47,153.19-245.2c11.13-67.03-1.19-140.87-47.24-191.48c-43.58-47.9-109.49-68.32-165.22-101.85
		c-132.61-79.82-280.82-267.54-416.7-340.91C1151.99,21.56,894.07,41.98,800.77,53.51z"/>
	<g>
		<polygon class="st1" points="49.24,1277.11 1531.68,1270.46 2110.76,1394.16 370.76,1403.51 		"/>
		<g>
			<g>
				<g>
					<g>
						<g>
							<rect x="1862.72" y="1068.61" class="st2" width="26.59" height="269.22"/>
							<rect x="1706.52" y="1050.97" class="st3" width="26.59" height="269.22"/>
							<rect x="1664.49" y="1073.53" class="st2" width="26.59" height="269.22"/>
						</g>
						<g>
							<polyline class="st3" points="1934.74,926.81 1905.73,1064.48 1879.33,1062 1907.85,928.27 							"/>
							<g>
								<polygon class="st4" points="1937.78,780.09 1976.4,751.71 1996.42,759.61 1952.21,962.56 1922.88,961.6 								"/>
								<polygon class="st1" points="1824.96,737.31 1977.39,751.52 1929.58,966.75 1774.14,936.86 								"/>
							</g>
						</g>
						<g>
							<polygon class="st4" points="1871.5,1044.42 1916.37,1049.12 1916.37,1070.99 1602.48,1094.08 1603.18,1051.89 							"/>
							<polygon class="st1" points="1760.27,1007.82 1916.37,1049.05 1582.53,1068.71 							"/>
						</g>
					</g>
					<g>
						<path class="st5" d="M1673.15,468.88c-3.73-22.3,9.68-46.35,30.66-54.84c20.98-8.49,47.34-0.63,60.19,18.01
							c12.85,18.63,10.87,46.09-4.49,62.67c-11.79,12.72-9.98,35.48,3.67,46.15c17.71,13.91,25.54,39.18,18.77,60.66
							c-6.77,21.47-27.72,37.7-50.22,38.88c-8.46,0.46-14.31-9.15-14.34-17.64c-0.03-8.49,3.53-16.58,4.43-25.01
							c0.86-8.42-2.38-18.6-10.54-20.88c-19.03-5.29-34.99-20.55-41.13-39.35C1664,518.74,1677.87,497.16,1673.15,468.88z"/>
						<g>
							<g>
								<g>
									<g>
										<path class="st6" d="M1559.27,1335.48c-18.2,8.92-118.31,17.97-140.64,6.31c-1.75-0.96-3.04-2.02-3.73-3.24
											c-4.29-7.24,12.29-22.76,31.55-37.43c22.7-17.31,49.13-33.47,49.13-33.47l54.35-3.8c0,0,2.74,9.15,5.65,20.88
											c1.29,5.25,2.61,10.97,3.73,16.65C1562.51,1317.41,1564.16,1333.07,1559.27,1335.48z"/>
										<path class="st7" d="M1559.27,1335.48c-18.2,8.92-118.31,17.97-140.64,6.31c-1.75-0.96-3.04-2.02-3.73-3.24
											c-4.29-7.24,12.29-22.76,31.55-37.43c29.57,6.11,87.38-3.17,109.12-16.39c1.29,5.25,2.61,10.97,3.73,16.65
											C1562.51,1317.41,1564.16,1333.07,1559.27,1335.48z"/>
									</g>
									<path class="st6" d="M1469.77,998.27c-1.78,54.48,16.92,132.74,26.79,272.82c5.68,0.2,53.59,0,53.59,0
										s20.42-158.71,4.92-211.17c-5.55-18.73,48.04-11.93,92.54-36.97c11.6-6.57,24.22-11.83,37.93-15.56
										c13.64-3.67,29.6-6.64,36.51-16.88c14.44-21.34-25.27-46.12-40.5-89c-13.18,3.34-25.21,6.51-36.44,9.58
										C1594.06,925,1471.16,955.55,1469.77,998.27z"/>
								</g>
								<g>
									<path class="st8" d="M1604.7,1276.48c21.34,1.69,27.52,8.23,53.32-0.66c0-198.45-21.01-215.01-14.8-215.83
										c65.15-8.79,136.34-0.59,189.63-37.4c71.43-55.24,40.11-139.45,6.51-207.64c-56.53,4.29-113.12,8.56-169.65,12.85
										c-17.91,27.88-25.77,56.3-24.61,83.35c0.63,15.2,4.06,29.93,10.14,43.97c-12.98,7.83-27.32,12.06-41.73,15.23
										c-31.98,7.04-68.29,10.94-73.41,35.68C1535.58,1027.54,1604.83,1275.88,1604.7,1276.48z"/>
									<g>
										<path class="st8" d="M1555.41,1351.37c5.02,17.51,83.35,21.67,96.6,9.85c6.87-6.14,8.16-30.13,7.86-51.77
											c-0.3-20.15-2.02-38.32-2.02-38.32l-53.42,4.29c0,0-13.38,14.47-26.17,31.15
											C1565.28,1323.46,1552.89,1342.59,1555.41,1351.37z"/>
										<path class="st7" d="M1555.41,1351.37c5.02,17.51,83.35,21.67,96.6,9.85c6.87-6.14,8.16-30.13,7.86-51.77
											c-8.79,16.49-25.67,27.29-42.62,26.43c-16.42-0.86-31.85-12.55-38.98-29.3
											C1565.28,1323.46,1552.89,1342.59,1555.41,1351.37z"/>
									</g>
								</g>
								<path class="st9" d="M1479.12,957.17c14.8-2.25,31.81-3.53,51.37-3.53c38.65,0,65.15,6.57,82.99,16.65
									c24.25,13.68,32.64,33.8,34.13,52.66c1.12,14.11-1.59,27.52-4.39,36.97c65.15-8.79,136.34-0.59,189.63-37.4
									c71.43-55.24,40.11-139.45,6.51-207.64c-56.53,4.29-113.12,8.56-169.65,12.85c-17.91,27.88-25.77,56.3-24.61,83.35
									c-51.04,13.88-86.99,25.67-146.59,40.77C1491.78,953.57,1485.27,955.32,1479.12,957.17z"/>
							</g>
							<path class="st10" d="M1639.06,683.76l-17.81-40.07c0,0-20.85,11.79-32.57,33.53c-14.7,27.29-55.21,151.77-55.21,151.77
								l54.08,46.85l56.56-121.71L1639.06,683.76z"/>
							<path class="st11" d="M1786.73,642.56c-6.87-3.57-27.65-14.01-43.84-21.38c-16.25,17.18-64.06,66.04-81.21,65.25
								c-16.95-0.79-28.08-35.65-31.58-48.37c-11.5,7.07-34.33,20.98-29.44,36.74c16.98,54.91,53.98,139.15,47.84,228.32
								c3.77,3.77,196.57,12.92,222.9-10.37C1872.79,872.57,1852.81,676.92,1786.73,642.56z"/>
							<g>
								<g>
									<g>
										<path class="st8" d="M1742.89,621.19c-7,7.37-19.89,20.68-33.6,33.3c-18.14,16.75-37.86,32.41-47.61,31.98
											c-10.41-0.5-18.6-13.74-24.18-26.86c-3.54-8.33-6.05-16.55-7.37-21.51c7.14-4.36,13.45-6.81,14.24-7.07
											c-0.07-0.4-0.2-0.79-0.23-1.19c-3.17-14.5-7.7-22.33-14.73-37.66c21.87-14.34,37-25.97,57.55-37.46
											c-0.07,6.87,2.58,14.77,6.71,22.56c8.09,15.46,21.94,30.49,31.91,35.81C1728.85,614.81,1735.33,617.75,1742.89,621.19z"/>
										<path class="st12" d="M1693.67,577.25c-7.43,14.6-24.91,43.54-49.56,52.56c-3.17-14.47-7.66-22.33-14.7-37.63
											c21.87-14.37,37-26,57.55-37.5C1686.93,561.52,1689.57,569.45,1693.67,577.25z"/>
									</g>
									<path class="st13" d="M1709.26,654.49c-18.14,16.75-37.86,32.41-47.61,31.98c-10.41-0.5-18.6-13.74-24.18-26.86
										C1650.32,668.82,1675.99,666.48,1709.26,654.49z"/>
								</g>
								<g>
									<path class="st14" d="M1570.5,554.58c0.36,2.38,2.38,4.06,4.46,3.73"/>
									<path class="st12" d="M1533.56,552.45c0.44-10.08,10.93-17.81,23.43-17.27c12.51,0.54,22.29,9.15,21.85,19.23
										c-0.44,10.08-10.93,17.81-23.43,17.27C1542.91,571.14,1533.12,562.53,1533.56,552.45z"/>
									<g>
										<path class="st8" d="M1700.83,525.05c-1.42-50.08-36.57-89.83-78.53-88.77s-81.01,43.08-73.38,92.57
											c10.31,66.7,43.51,99.44,75.62,92.87C1665.22,613.39,1702.26,575.1,1700.83,525.05z"/>
										<path class="st12" d="M1692.18,519.96c-13.68-0.17-27.16-7-35.35-17.94c2.58,7.47,0.63,16.29-4.82,22
											c-2.08,2.18-5.02,3.96-7.96,3.27c-2.25-0.53-3.9-2.44-5.22-4.36c-4.63-6.74-6.9-15.03-6.44-23.19
											c-3.77,14.54-15.06,26.89-29.2,31.95c-3.83,1.39-8.49,2.11-11.7-0.43c-2.64-2.08-3.4-5.88-2.74-9.18s2.44-6.24,4.23-9.09
											c-12.12,11.66-28.71,18.53-45.53,18.83c2.02-23.46,12.52-46.48,30.46-61.68c17.94-15.2,43.54-21.67,66.04-14.77
											c22.5,6.9,40.5,27.95,41.83,51.44"/>
									</g>
									<g>
										<path class="st15" d="M1641.93,531.95c-9.58-7.04-21.31-5.98-28.45-1.42"/>
										<path class="st15" d="M1582.26,536.44c-9.61-5.19-20.48-1.12-24.41,5.35"/>
										<path class="st16" d="M1593.2,557.89c0.76,8.36,2.51,16.62,5.19,24.58"/>
										<path class="st16" d="M1604.13,594.92c10.37,1.55,19.36-2.58,23.82-11.53"/>
										<path class="st17" d="M1626.22,546.91c2.09-0.32,4.19,2,4.68,5.19c0.49,3.19-0.8,6.04-2.89,6.36
											c-2.09,0.32-4.19-2-4.68-5.19C1622.83,550.09,1624.13,547.24,1626.22,546.91z"/>
										<path class="st17" d="M1572.53,555.21c2.09-0.32,4.19,2,4.68,5.19c0.49,3.19-0.8,6.04-2.89,6.36
											c-2.09,0.32-4.19-2-4.68-5.19C1569.15,558.38,1570.44,555.53,1572.53,555.21z"/>
									</g>
									<g>
										<path class="st7" d="M1698.75,548.64c-2.68-7.9-6.71-16.88-11.76-26.13c-13.97-7.37-25.54-19.26-34.33-32.51
											c0.03,0.53,0.1,0.99,0.17,1.52c1.45,11.4-3.24,34.29-7.1,32.61c-6.34-2.71-11.53-42.25-17.31-63.37
											c3.7,12.98,4.1,27.16-0.46,39.84c-4.53,12.69-14.4,23.72-27.09,28.21c-1.69,0.56-3.7,0.99-5.09-0.07
											c-1.72-1.39-1.35-4-0.83-6.11c4.16-16.49,8.36-32.91,12.42-49.36c-3.27,12.72-7.33,25.27-16.19,34.56
											c-9.91,10.44-24.32,16.62-41.03,19.03c0.1,10.21,1.75,19.19,3.93,26.53c-5.48-7.27-9.55-15.26-12.19-23.65
											c-6.81-21.61-4.43-45.82,6.31-65.55c14.87-27.35,46.22-44.9,77.27-43.25c6.51-0.63,12.98-0.53,19.26,0.4
											c25.24,3.5,47.61,18.67,59.53,40.17C1719.14,488.41,1716.89,523.82,1698.75,548.64z"/>
										<path class="st18" d="M1644.7,421.38c-26.03,2.28-51.41,11.66-70.86,28.97c-22.17,19.69-35.28,50.18-31.98,79.42
											c-6.81-21.61-4.43-45.82,6.31-65.55c14.87-27.35,46.22-44.9,77.27-43.25C1631.95,420.35,1638.43,420.48,1644.7,421.38z"/>
									</g>
									<path class="st8" d="M1696.04,525.54c11.01-5.91,23.81-3.48,28.59,5.43c4.78,8.91-0.27,20.92-11.29,26.83
										c-11.01,5.91-23.81,3.48-28.59-5.43C1679.97,543.46,1685.02,531.45,1696.04,525.54z"/>
								</g>
							</g>
						</g>
					</g>
				</g>
				<g>
					<g>
						<g>
							<path class="st7" d="M968.93,1331.78c-12.36,14.87-91.61,13.78-100.33,0.43c-1.45-2.18-1.19-8.03,0.03-15.69
								c3.93-24.88,18.04-68.82,18.04-68.82l72.22,5.15c0,0,11.53,40.37,12.52,63.93C971.67,1323.75,971.04,1329.24,968.93,1331.78z
								"/>
							<path class="st19" d="M968.93,1331.78c-12.36,14.87-91.61,13.78-100.33,0.43c-1.45-2.18-1.19-8.03,0.03-15.69
								c32.05,14.67,70.57,14.47,102.78,0.3C971.67,1323.75,971.04,1329.24,968.93,1331.78z"/>
						</g>
						<g>
							<path class="st7" d="M1203.33,1319.26c-8.69,9.42-134.79,8.92-142.82-4.46c-0.99-1.62-0.63-5.75,0.46-11.2
								c3.73-18.57,16.42-52.2,16.42-52.2l60.49,8c0,0,27.59,21.04,60.85,42.06c0.63,0.4,1.19,0.86,1.72,1.42
								C1204.91,1307.23,1206.43,1315.86,1203.33,1319.26z"/>
							<path class="st19" d="M1203.33,1319.26c-8.69,9.42-134.79,8.92-142.82-4.46c-0.99-1.62-0.63-5.75,0.46-11.2
								c45.23,11.66,93.96,11.56,139.48-0.73C1204.91,1307.23,1206.43,1315.86,1203.33,1319.26z"/>
						</g>
						<g>
							<polygon class="st4" points="1160.58,1257.55 1059.95,1270.3 976.26,814.91 970.35,1264.06 875.5,1255.7 853.33,720.3 
								850.52,653 874.57,621.71 884.95,608.23 919.74,620.39 1075.18,674.84 1079.8,706.55 							"/>
							<path class="st20" d="M1079.8,706.55c-74.8,12.03-150.81,16.62-226.47,13.74l-2.81-67.3l24.05-31.29
								c15.06-0.2,30.1-0.63,45.16-1.32l155.44,54.41L1079.8,706.55z"/>
						</g>
					</g>
					<g>
						<g>
							<g>
								<path class="st21" d="M1058.53,398.12c-11.13,14.31-23.36,28.31-40.11,31.98c-18.47,4.1-37.7-6.05-49.75-20.68
									c-12.03-14.5-18.37-32.84-24.45-50.78c12.98-2.81,22-14.8,26.93-26.99c1.09-2.81,2.11-5.62,2.97-8.56
									c1.39-4.26,2.61-8.69,4-12.92c1.68-5.35,3.57-10.54,6.24-15.46c6.77,3.37,13.28,6.57,19.43,9.68
									c16.95,8.52,31.95,16.22,46.95,23.99c-1.52,7.3-5.15,15.86-7.93,24.55c-2.78,8.72-4.69,18.14-2.58,27.02
									c0.1,0.63,0.3,1.22,0.5,1.85C1043.39,389.99,1050.07,397.19,1058.53,398.12z"/>
								<path class="st22" d="M1040.78,381.8c-29.07-9.05-54.11-30.92-66.67-58.67c1.39-4.26,2.61-8.69,4-12.92
									c7.66-4.49,16.58-6.14,25.7-5.75c16.95,8.52,31.95,16.22,46.95,23.99c-1.52,7.3-5.15,15.86-7.93,24.55
									c-2.78,8.72-4.69,18.14-2.58,27.02C1040.39,380.58,1040.59,381.2,1040.78,381.8z"/>
							</g>
							<g>
								<path class="st22" d="M1100.35,291.97c6.64-2.38,13.48-4.82,20.52-4.69c7.07,0.13,14.5,3.37,17.64,9.68
									c3.14,6.34,1.09,14.44-3.83,19.52c-4.92,5.05-12.19,7.37-19.26,7.5s-14.01-1.69-20.75-3.87"/>
								<path class="st21" d="M964.14,244.53c11.96-54.45,57.19-92.37,100.4-82.89c43.21,9.51,64.55,60.03,52.56,114.44
									c-11.96,54.45-34.59,98.52-77.77,89C996.15,355.63,952.18,298.97,964.14,244.53z"/>
								<g>
									<path class="st23" d="M1027.74,274.49c1.11-3.36,4.05-5.41,6.56-4.58c2.51,0.83,3.65,4.23,2.54,7.59
										c-1.11,3.36-4.05,5.41-6.56,4.58C1027.76,281.25,1026.63,277.85,1027.74,274.49z"/>
									<path class="st23" d="M1083.37,288.6c1.11-3.36,4.05-5.41,6.56-4.58c2.51,0.83,3.65,4.23,2.54,7.59
										c-1.11,3.36-4.05,5.41-6.56,4.58C1083.4,295.36,1082.26,291.96,1083.37,288.6z"/>
									<path class="st15" d="M1021.13,246.35c8.39-4.86,19.43-4.63,27.62,0.53"/>
									<path class="st15" d="M1087.27,255.1c8.85-2.51,19.06,0.69,24.94,7.8"/>
									<path class="st24" d="M1071.44,283.05c-0.5,10.01-2.84,19.92-6.87,29.07"/>
									<path class="st25" d="M1063.05,325.4c-13.68-3.01-26.79-8.59-37.99-15.1c-5.58,6.67-6.41,16.92-1.95,24.38
										c4.46,7.47,13.88,11.6,22.4,9.85C1054.03,342.75,1061,335.22,1063.05,325.4z"/>
								</g>
								<g>
									<path class="st26" d="M1028.26,200.29c-18.7,23.39-35.38,62.08-38.42,62.51c-10.67,1.49-20.52,8.06-26.83,19.39
										c-3.3-28.91,0.69-58.61,11.6-84.64C996.52,199.23,1028.26,200.29,1028.26,200.29z"/>
									<g>
										<path class="st7" d="M1141.94,222.36c-1.75,4.06-4.79,7.53-8.42,9.85c-3.2,2.11-6.9,3.34-10.6,3.3
											c-49.99-15.36-100.14-24.68-150.95-27.49c-10.27-0.56-12.72-7.24-13.15-12.49c-0.33-5.32,1.26-10.74,3.73-15.43
											c2.41-4.59,5.75-8.82,10.18-11.2c4.39-2.31,9.98-2.44,13.81,0.5c-3.9-12.49,1.85-26.69,12.39-32.28
											c10.47-5.52,24.15-1.62,30,8.62c2.51-5.78,6.54-10.6,11.23-13.97c6.24-4.43,13.71-6.41,20.68-4.86
											c12.16,2.61,21.21,15.49,20.25,28.81c2.54-7.53,10.11-11.17,16.75-10.47c6.74,0.66,12.55,4.89,17.11,9.91
											c4.69,5.19,8.46,11.56,9.32,18.8c0.86,7.24-1.82,15.33-7.63,19.46c7.83-2.28,16.68-0.3,22.04,5.65
											C1143.86,205.05,1145.25,214.6,1141.94,222.36z"/>
										<path class="st27" d="M1141.94,222.36c-1.75,4.06-4.79,7.53-8.42,9.85c3.3-7.76,2.91-16.98-1.62-24.08
											c-6.44-10.14-20.58-14.54-31.62-9.88c4.2-5.55,7.76-8.56,10.34-12.36c2.64-3.7,4.26-8.39,3.44-12.88
											c-0.79-4.16-3.57-7.8-7.1-10.18c-5.19-3.53-11.96-4.49-17.97-2.61c-5.95,1.82-10.94,6.57-13.18,12.39
											c-1.82-9.85-3.4-17.91-7.24-24.91c-3.77-6.97-9.98-12.95-17.64-15.26c-3.5-1.09-7.27-1.26-10.8-0.59
											c6.24-4.43,13.71-6.41,20.68-4.86c12.16,2.61,21.21,15.49,20.25,28.81c2.54-7.53,10.11-11.17,16.75-10.47
											c6.74,0.66,12.55,4.89,17.11,9.91c4.69,5.19,8.46,11.56,9.32,18.8c0.86,7.24-1.82,15.33-7.63,19.46
											c7.83-2.28,16.68-0.3,22.04,5.65C1143.86,205.05,1145.25,214.6,1141.94,222.36z"/>
									</g>
								</g>
								<path class="st21" d="M993.54,268.71c-5.15-7.43-12.29-13.74-20.85-16.62c-8.59-2.87-18.63-2.02-25.87,3.44
									c-7.24,5.42-10.9,15.66-7.63,24.08c3.17,8.13,11.79,13.12,20.45,14.34c8.66,1.26,17.41-0.56,25.93-2.38"/>
							</g>
						</g>
						<g>
							<g>
								<path class="st21" d="M1254.6,509.02c0,0-80.51,159.87-107.04,151.31c-11.93-3.83-26.66-20.42-40.6-40.11
									c-15.66-22.04-30.43-48-39.25-64.36c-5.35-9.85-8.52-16.22-8.52-16.22l74.83-38.39l3.44-1.75l21.77,49.52l1.78,4.03
									l70.04-89.53L1254.6,509.02z"/>
								<path class="st22" d="M1159.22,549.06l-52.26,71.2c-15.66-22.04-30.43-48-39.25-64.36l66.31-54.61l3.44-1.75L1159.22,549.06
									z"/>
							</g>
							<path class="st28" d="M1048.68,447.87l31.58-45.33c0,0,27.26,14.01,41.4,41.49c17.94,34.85,40.6,96.37,40.6,96.37
								l-89.04,75.06L1048.68,447.87z"/>
							<g>
								<g>
									<g>
										
											<rect x="1218.82" y="401.71" transform="matrix(0.2348 -0.972 0.972 0.2348 546.4739 1645.876)" class="st29" width="199.59" height="148.28"/>
									</g>
									<g>
										
											<rect x="1239.42" y="414.54" transform="matrix(0.2348 -0.972 0.972 0.2348 553.6702 1646.4594)" class="st30" width="166.32" height="114.05"/>
									</g>
									<g>
										<g>
											<g>
												
													<rect x="1237.54" y="410.18" transform="matrix(0.2348 -0.972 0.972 0.2348 556.4691 1641.2903)" class="st31" width="166.32" height="114.05"/>
											</g>
											<g>
												<g>
													<g>
														
															<rect x="1344.13" y="377.36" transform="matrix(0.2348 -0.972 0.972 0.2348 628.343 1624.1903)" class="st32" width="3.27" height="71.3"/>
														
															<rect x="1342.15" y="385.58" transform="matrix(0.2348 -0.972 0.972 0.2348 618.8227 1628.5553)" class="st32" width="3.27" height="71.3"/>
														
															<rect x="1340.04" y="394.34" transform="matrix(0.2348 -0.972 0.972 0.2348 608.6951 1633.2032)" class="st32" width="3.27" height="71.3"/>
													</g>
													
														<rect x="1282.55" y="402.57" transform="matrix(0.2348 -0.972 0.972 0.2348 591.563 1569.9205)" class="st33" width="20.75" height="13.31"/>
												</g>
												<g>
													<g>
														
															<rect x="1336.4" y="409.48" transform="matrix(0.2348 -0.972 0.972 0.2348 591.1994 1641.2499)" class="st32" width="3.27" height="71.3"/>
														
															<rect x="1334.39" y="417.7" transform="matrix(0.2348 -0.972 0.972 0.2348 581.6676 1645.5809)" class="st32" width="3.27" height="71.3"/>
														
															<rect x="1332.27" y="426.45" transform="matrix(0.2348 -0.972 0.972 0.2348 571.5398 1650.2286)" class="st32" width="3.27" height="71.3"/>
													</g>
													
														<rect x="1274.79" y="434.68" transform="matrix(0.2348 -0.972 0.972 0.2348 554.4356 1586.9635)" class="st33" width="20.75" height="13.31"/>
												</g>
												<g>
													<g>
														
															<rect x="1328.71" y="439.24" transform="matrix(0.2348 -0.972 0.972 0.2348 556.3785 1656.5446)" class="st32" width="3.27" height="71.3"/>
														
															<rect x="1326.72" y="447.47" transform="matrix(0.2348 -0.972 0.972 0.2348 546.8635 1660.913)" class="st32" width="3.27" height="71.3"/>
														
															<rect x="1324.6" y="456.26" transform="matrix(0.2348 -0.972 0.972 0.2348 536.6991 1665.5775)" class="st32" width="3.27" height="71.3"/>
													</g>
													
														<rect x="1267.09" y="464.44" transform="matrix(0.2348 -0.972 0.972 0.2348 519.5804 1602.2358)" class="st33" width="20.75" height="13.31"/>
												</g>
												<g>
													<g>
														
															<rect x="1321.03" y="469.04" transform="matrix(0.2348 -0.972 0.972 0.2348 521.5372 1671.8933)" class="st32" width="3.27" height="71.3"/>
														
															<rect x="1319.05" y="477.27" transform="matrix(0.2348 -0.972 0.972 0.2348 512.0222 1676.2617)" class="st32" width="3.27" height="71.3"/>
														
															<rect x="1316.91" y="486.02" transform="matrix(0.2348 -0.972 0.972 0.2348 501.8778 1680.8724)" class="st32" width="3.27" height="71.3"/>
													</g>
													
														<rect x="1259.42" y="494.25" transform="matrix(0.2348 -0.972 0.972 0.2348 484.7461 1617.5889)" class="st33" width="20.75" height="13.31"/>
												</g>
											</g>
										</g>
										<g>
											<path class="st7" d="M1306.14,376.02l1.85-7.6l69.28,16.75l-1.85,7.6c-1.09,4.46-5.58,7.24-10.04,6.14l-53.09-12.82
												C1307.82,384.97,1305.08,380.48,1306.14,376.02z"/>
											<g>
												<circle class="st34" cx="1317.01" cy="378.89" r="3.5"/>
												<circle class="st34" cx="1364.48" cy="390.35" r="3.5"/>
											</g>
										</g>
									</g>
								</g>
								<path class="st21" d="M1228.6,437.6c9.15-14.24,19.79-25.11,26.73-40.6c1.19-2.68,3.17-5.88,6.01-5.32
									c2.21,0.43,3.27,3.01,3.73,5.25c2.61,12.49-1.19,26.17-8.09,35.55c1.55,11.69-1.95,26.76-10.94,33.14
									c-3.07,11.23-4.86,17.15-7.86,27.65c-7.66-7.66-13.58-14.93-15.73-22.7C1219.62,460.13,1222.46,447.18,1228.6,437.6z"/>
							</g>
						</g>
						<g>
							<g>
								<path class="st21" d="M753.3,281.73c-4.56-25.84-9.09-51.67-13.64-77.54c-0.83-4.76-3.07-10.51-8.23-9.61
									c-2.68,0.46-5.12,2.74-6.41,5.25c-1.32,2.51-1.72,5.19-2.08,7.83c-1.65,12.26-2.48,24.45-0.73,37.79
									c-12.55-15-25.93-29.34-40.04-42.88c-4.03-3.87-8.46-7.83-14.44-8.52c-2.74-0.33-6.24,0.4-7.96,2.97
									c-2.08,3.14-0.07,6.54,1.95,8.99c8.79,10.57,17.94,20.85,28.94,31.65c-14.73-7.24-29.5-14.47-44.24-21.67
									c-2.35-1.16-4.79-2.31-7.63-2.28c-2.84,0.03-6.18,1.68-7.4,4.43c-1.09,2.44-0.23,4.92,0.99,6.84
									c2.64,4.16,6.87,6.94,11.03,9.65c10.7,6.97,21.41,13.94,29.87,20.32c-12.46-4.06-25.11-7.76-37.93-11.13
									c-2.02-0.53-4.1-1.06-6.31-0.59c-2.21,0.43-4.56,2.15-5.05,4.29c-0.63,2.81,1.95,4.66,4.23,5.85
									c13.91,7.33,27.82,14.7,41.99,21.34c-11.56-2.84-23.13-5.72-34.69-8.56c-3.96-0.99-9.71-1.09-11.76,3.01
									c-1.95,3.87,1.78,7,5.12,8.72c19.46,10.01,38.89,20.02,58.34,30.03c13.91,7.17,29.17,14.5,46.42,11.07"/>
								<g>
									<path class="st21" d="M877.05,491.25c-8.19,6.21-24.48,14.14-43.64,21.71c-16.72,6.61-35.65,12.98-53.32,17.74
										c-28.68,7.73-54.11,11.23-61.61,4.86c-31.06-26.53-11.17-225.88-11.17-225.88l46.02-28.21l14.73,158.71
										c0,0,3.5-2.05,9.35-5.45c13.38-7.7,39.02-22.43,63.7-35.91c15.89-8.62,31.32-16.75,42.85-22.17
										C883.96,376.64,904.11,470.77,877.05,491.25z"/>
									<path class="st22" d="M841.08,398.84l-7.66,114.11c-16.72,6.61-35.65,12.98-53.32,17.74l-2.68-95.97
										C790.76,427.03,816.4,412.29,841.08,398.84z"/>
								</g>
							</g>
							<path class="st35" d="M911.84,366.4c-15.73-3.17-134.13,61.65-134.13,61.65l24.58,121.44c0,0,83.45-19.86,88.84-31.22
								C896.58,506.91,921.29,368.32,911.84,366.4z"/>
						</g>
						<g>
							<path class="st35" d="M951.29,354.64c0,0,22.89,63.66,52.69,71.33c37.1,9.55,37.46-45.33,37.46-45.33s54.61,26.3,63,42.42
								c6.44,12.39-12.49,146.62-21.84,220.62c-4,31.65-1.72,53.42-1.72,53.42l-233.9-10.64c0,0-3.14-250.26,27.49-296.91
								C891.52,363.59,951.29,354.64,951.29,354.64z"/>
							<path class="st36" d="M1040.85,378.26c-1.52,9.38-2.54,16.78-6.18,25.57c-3.63,8.79-9.85,15.23-16.52,22.7
								c16.49-2.71,35.05,5.19,46.29,17.51c6.34-19.1,4.06-39.68-5.25-57.09C1053.5,383.68,1047.69,380.71,1040.85,378.26z"/>
							<path class="st36" d="M1000.88,425.31c-18.96-21.8-33.96-47.08-45-73.81c-8.16-0.63-15.3-0.13-22.2,5.25
								c-5.91,26.17-1.55,54.51,4.29,79.98C958.03,422.73,977.06,419.69,1000.88,425.31z"/>
							
								<rect x="1057.26" y="459.13" transform="matrix(0.0993 -0.9951 0.9951 0.0993 478.464 1487.3199)" class="st36" width="7.07" height="40.47"/>
						</g>
					</g>
				</g>
				<g>
					<g>
						<g>
							<polygon class="st4" points="285.82,690.23 247.5,677.84 233.62,682.5 262.26,852.74 318.92,851.09 							"/>
							<polygon class="st1" points="498.58,676.92 247.5,677.58 284.73,891.86 531.45,896.25 							"/>
						</g>
						<g>
							<g>
								<g>
									<rect x="410.53" y="1040.03" class="st2" width="23.26" height="270.05"/>
									<rect x="314.13" y="1010.13" class="st2" width="23.26" height="270.05"/>
								</g>
								<rect x="555.24" y="1023.81" class="st2" width="23.26" height="270.05"/>
							</g>
							<polygon class="st2" points="300.85,888.09 324.04,1003.46 355,998.3 332.43,880.36 							"/>
							<g>
								<polygon class="st4" points="329.92,1001.08 301.78,995.63 301.78,1013.24 395.37,1057.11 573.41,1053.61 585.66,1011.98 
																	"/>
								<polygon class="st1" points="432.27,990.51 300.45,995.63 396.39,1032.23 616.06,1028.6 								"/>
							</g>
						</g>
					</g>
					<g>
						<g>
							<g>
								<g>
									<g>
										<path class="st6" d="M792.54,1327.12c-9.71,16.32-124.75,6.54-144.41-3.07c-4.92-2.41-3.27-18.07-0.07-34.09
											c3.7-18.5,9.45-37.53,9.45-37.53l54.31,3.8c0,0,26.4,16.16,49.13,33.5C780.25,1304.36,796.87,1319.89,792.54,1327.12z"/>
										<path class="st7" d="M792.54,1327.12c-9.71,16.32-124.75,6.54-144.41-3.07c-4.92-2.41-3.27-18.07-0.07-34.09
											c4.43-5.05,11.1-8.82,19.66-10.18c29.01,12.98,62.14,16.29,93.23,9.91C780.25,1304.36,796.87,1319.89,792.54,1327.12z"/>
									</g>
									<path class="st6" d="M713.29,971.87c0,88.11-0.53,148.57-0.53,291.29c-5.68,0.2-40.21,3.14-55.47,0.79
										c-26.89-52.63-15.26-99.14-35.71-153.66c-16.25-43.25-45.33-86.79-89.83-111.86c-11.6-6.57-24.22-11.83-37.93-15.56
										c-13.64-3.67-29.6-6.64-36.51-16.88c-14.44-21.34,25.27-46.12,40.5-89c13.18,3.34,25.21,6.51,36.44,9.58
										C585.24,900.45,713.29,929.09,713.29,971.87z"/>
								</g>
								<g>
									<path class="st8" d="M673.94,1263.16c-21.34,1.69-36.97,6.74-62.77-2.15c-37.6-127.33-56.53-139.35-56.53-222.57
										c-6.11-1.22-12.29-2.18-18.5-3.04c-65.15-8.79-136.34-0.59-189.63-37.4c-71.43-55.24-40.11-139.45-6.51-207.64
										c56.53,4.29,113.12,8.56,169.65,12.85c17.91,27.88,25.77,56.3,24.61,83.35c-0.63,15.2-4.06,29.93-10.14,43.97
										c12.98,7.83,27.32,12.06,41.73,15.23c31.98,7.04,51.44,4,71.33,28.18C654.42,1108.38,673.77,1262.57,673.94,1263.16z"/>
									<g>
										<path class="st8" d="M727.3,1336.77c-5.75,17.51-95.25,21.67-110.41,9.85c-7.83-6.14-9.35-30.13-8.99-51.77
											c0.33-20.15,2.28-38.32,2.28-38.32l61.05,4.29c0,0,15.3,14.47,29.93,31.15C716,1308.82,730.17,1327.98,727.3,1336.77z"/>
										<path class="st7" d="M727.3,1336.77c-5.75,17.51-95.25,21.67-110.41,9.85c-7.83-6.14-9.35-30.13-8.99-51.77
											c10.08,16.49,29.34,27.29,48.7,26.43c18.77-0.86,36.41-12.55,44.57-29.3C716,1308.82,730.17,1327.98,727.3,1336.77z"/>
									</g>
								</g>
							</g>
							<path class="st37" d="M700.17,932.63c-14.8-2.25-31.81-3.54-51.37-3.54c-38.65,0-65.15,6.57-82.99,16.65
								c-24.25,13.68-32.64,33.8-34.13,52.66c-1.12,14.11,1.59,27.52,4.39,36.97c-65.15-8.79-136.34-0.59-189.63-37.4
								c-71.43-55.24-40.11-139.45-6.51-207.64c56.53,4.29,113.12,8.56,169.65,12.85c17.91,27.88,25.77,56.3,24.61,83.35
								c51.04,13.88,86.99,25.67,146.59,40.77C687.52,929.03,694.03,930.78,700.17,932.63z"/>
						</g>
						<g>
							<path class="st7" d="M466.07,633.14c-17.84,5.45-35.94,10.7-54.64,12.36c-18.73,1.62-38.32-0.63-54.54-9.38
								c-16.19-8.75-28.41-24.75-28.61-42.02c-0.23-17.28,13.41-34.66,31.98-37.37c9.38-1.35,16.65-10.31,15.43-18.96
								c-1.68-11.76,3.24-24.15,12.79-32.15c9.51-7.99,23.39-11.4,38.65-6.81c13.08-2.68,26.36-5.35,39.74-4.59
								c13.38,0.79,27.06,5.48,35.32,15.2c8.23,9.71,9.35,24.91,0.26,33.96c-6.41,6.38,0.59,17.28,8.69,21.61
								c26.53,14.21,14.97,34.66,10.57,42.35C507.76,631.79,483.12,627.96,466.07,633.14z"/>
							<g>
								<path class="st8" d="M471.12,657.23c12.62-13.35,35.78-45.59,24.35-76.84c-3.14-1.78-6.14-3.5-8.89-5.09
									c-2.54-1.52-4.43-3.63-5.55-6.11c-0.76-1.82-1.02-3.73-0.83-5.75c1.78-16.72,3.34-26.03,9.22-43.01
									c-27.88-6.28-54.18-13.78-69.28-26.4c-1.85,7.8-4.03,22.99-8.69,38.09c-4.96,15.99-12.69,31.81-25.8,38.59
									C422.96,634.5,468.68,659.84,471.12,657.23z"/>
								<path class="st38" d="M325.53,602.92c-16.95,22.17-26.73,188.31-18.43,233.77c55.83,26.03,136.74,22.63,198.42,9.65
									c-1.59-31.95,8.75-86.72,17.34-109.78c12.98-42.75,21.74-61.98,32.31-120.29c-19.1-12.98-42.06-25.84-59.73-35.85
									c-10.18,37.46-26.07,45.79-30.86,45.46c-4.13-0.3-29.3-1.78-78.93-55.07C384.67,571.3,334.62,591.02,325.53,602.92z"/>
								<path class="st12" d="M480.21,563.47c-0.2,1.98,0.07,3.93,0.83,5.75c-16.52,19.99-53.39-6.14-69.58-37.03
									c4.66-15.1,6.84-30.33,8.69-38.09c15.1,12.62,41.4,20.12,69.28,26.4C483.58,537.47,481.99,546.75,480.21,563.47z"/>
							</g>
							<g>
								<path class="st12" d="M532.42,465.1c13.89-7.03,29.64-3.84,35.18,7.12c5.54,10.96-1.22,25.54-15.11,32.56
									s-29.64,3.84-35.18-7.12C511.77,486.71,518.53,472.13,532.42,465.1z"/>
								<path class="st7" d="M565.08,432.91c-2.58,18.27-10.74,38.42-22.63,60.66c-4.16-18.24-6.84-40.44-10.54-62.64
									c-3.73-22.27-8.52-44.5-16.82-62.67c-1.88-4.03-3.9-7.86-6.08-11.43c4.92-0.46,9.88,0,14.6,1.32
									c7.4,1.98,14.34,5.81,20.02,10.9c9.42,8.39,15.73,19.82,19.49,31.85C566.21,410.87,566.77,421.51,565.08,432.91z"/>
								<g>
									<path class="st8" d="M551.14,451.77c-0.13,3.6-0.36,7.27-0.69,10.9c-5.05,59.14-29.9,99.71-67.89,99.71
										c-53.65,0-88.41-60.16-88.41-119.1c0-58.15,35.61-100.2,77.31-95.35c24.02,2.78,41.59,10.74,54.05,22.43
										c8.26,7.76,14.21,17.18,18.27,27.88c4.63,11.99,6.87,25.54,7.37,40.14c0,0.03,0.03,0.1,0.03,0.13
										C551.31,442.88,551.27,447.28,551.14,451.77z"/>
									<path class="st12" d="M551.14,451.77c-1.59-5.72-4-11.3-7.2-16.29c-31.62,16.55-69.35,22.89-105.09,16.88
										c-6.81,5.68-13.45,11.23-20.15,16.82c0.13-26.89,0.53-45.13,11-58.15c9.85-12.22,26.3-16.82,41.83-18.83
										c17.51-2.28,35.32-2.21,52.79,0.33c6.71,0.93,13.64,2.38,19.46,5.75c4.63,11.99,6.87,25.54,7.37,40.14
										c0,0.03,0.03,0.1,0.03,0.13C551.31,442.88,551.27,447.28,551.14,451.77z"/>
								</g>
								<path class="st7" d="M558.87,415.36c-7.37,6.24-16.59,11.4-26.93,15.56c-29.47,11.89-67.79,15.82-97.62,14.37
									c-14.67,32.24-20.61,43.81-24.35,71.92c-14.34-13.45-26-38.09-29.47-57.45c-3.44-19.29-3.11-39.55,2.28-58.51
									c8.49-29.9,29.83-45.92,44.63-53.69c3.7-2.02,7.04-3.44,9.61-4.46c18.93-7.3,40.24-6.64,59.63-0.69
									c10.57,3.27,19.49,8.85,26.99,15.69c15.13,13.68,24.51,32.18,30.56,46.05C556.03,408.43,557.58,412.29,558.87,415.36z"/>
								<path class="st8" d="M380.17,480.57c5.68-10.89,21.47-13.87,35.27-6.67c13.8,7.2,20.38,21.87,14.69,32.75
									c-5.68,10.89-21.47,13.87-35.27,6.67C381.06,506.12,374.49,491.46,380.17,480.57z"/>
								<g>
									<path class="st15" d="M451.37,469.15c9.91-5.65,18.4-9.38,30.03-2.61"/>
									<path class="st15" d="M518.1,467.43c8.49-6.34,19.36-5.25,25.9,1.72"/>
									<path class="st16" d="M506.9,493.23c0.89,8.92,0.3,18.01-1.75,26.73"/>
									<path class="st16" d="M498.94,532.71c-13.81,2.02-23.23-2.21-30.69-12.32"/>
									<path class="st17" d="M470.36,488.18c2.26,0,4.1,2.88,4.1,6.44c0,3.56-1.83,6.44-4.1,6.44c-2.26,0-4.1-2.88-4.1-6.44
										C466.27,491.06,468.1,488.18,470.36,488.18z"/>
									<path class="st17" d="M525.4,488.18c2.26,0,4.1,2.88,4.1,6.44c0,3.56-1.83,6.44-4.1,6.44s-4.1-2.88-4.1-6.44
										C521.31,491.06,523.14,488.18,525.4,488.18z"/>
								</g>
								<path class="st18" d="M565.08,432.91c-1.22-6.48-3.04-12.75-5.62-18.8c-1.45-3.44-3.24-6.74-5.29-9.94
									c-6.74-10.57-16.55-19.29-28.38-23.16c-3.37-4.72-6.94-8.99-10.67-12.79c-13.45-13.68-29.24-21.51-45.95-24.22
									c-13.91-2.25-28.38-0.99-41.76,3.57c3.7-2.02,7.04-3.44,9.61-4.46c18.93-7.3,40.24-6.64,59.63-0.69
									c10.57,3.27,19.49,8.85,26.99,15.69c7.4,1.98,14.34,5.81,20.02,10.9c9.42,8.39,15.73,19.82,19.49,31.85
									C566.21,410.87,566.77,421.51,565.08,432.91z"/>
							</g>
							<g>
								<g>
									<path class="st35" d="M426.99,754.36c-0.1,4.66-0.2,9.38-0.4,14.04c-0.93,28.38-3.11,56.76-6.57,85
										c-1.78,14.67-4.16,29.93-12.82,41.89c-11.13,15.36-30.49,22.23-48.99,26.36c-22.3,4.89-45.26,7-69.64,4.82
										c-3.96-0.33-7.96-0.79-12.03-1.39c-2.28-0.33-4.56-0.69-6.87-1.09c0.43-1.22,0.89-2.41,1.29-3.63
										c0.79-2.21,1.55-4.43,2.31-6.67c20.15-59,28.68-115.4,26.07-178.47c-1.26-29.87-0.36-56.89,2.35-86.92
										c0.07-0.93,0.17-1.78,0.26-2.68c0.1-0.69,0.2-1.42,0.3-2.08c5.98-41.59,39.31-59.8,90.92-78.03
										c20.75,14.97,26.07,43.15,28.74,68.62C426.1,674.08,427.78,714.22,426.99,754.36z"/>
								</g>
								<path class="st36" d="M426.59,690.99c2.61-25.67,0.96-56.13-4.86-81.3c-2.05-8.85-4.63-17.64-8.99-25.6
									c-4.36-7.96-10.67-15.03-18.2-20.02c-8.95,1.78-17.64,4.82-25.34,10.18c-0.69,13.41,6.54,44.17,8.99,49.26
									c2.94,6.05,21.44,13.38,36.37,25.57c-6.08,7.24-16.06,19.16-16.22,23.16C398.21,676.32,414.73,681.81,426.59,690.99z"/>
							</g>
							<g>
								<g>
									<path class="st28" d="M555.17,616.39c14.37,12.79,17.77,176.45,28.81,186.3c5.88,5.25,75.19,40.57,113.61,59.4
										c-13.25,8.39-25.08,19-34.95,31.35c-44.24-7.3-110.54-25.8-126.53-37.73c-19.99-14.9-20.32-107.27-25.84-162.25
										C522.99,668.89,527.85,641.27,555.17,616.39z"/>
									<path class="st35" d="M549.59,884.26c-14.83,6.05-15.76,6.64-29.3-1.88c-12.16-7.66-21.67-15.96-21.67-41.1
										c0-84.18,13.88-184.64-10.77-265.22c22.4,12.49,43.34,21.41,62.97,35.88c5.91,4.36,7.47,11.7,7.47,19.06
										C558.28,772.26,554.51,796.02,549.59,884.26z"/>
								</g>
								<path class="st36" d="M501.39,690.99c-0.5-37.73-5.91-80.31-14.73-116.32c11.53,4.63,23.16,9.42,34.59,16.52
									c10.11,14.5,23.06,40.83,21.61,46.75c-1.35,5.45-18.8,12.06-31.95,19.03c8.76,5.85,15.69,12.59,15.49,15.96
									C526.07,677.45,517.21,681.61,501.39,690.99z"/>
							</g>
						</g>
					</g>
				</g>
			</g>
			<g>
				<g>
					<g>
						<rect x="1806.36" y="965.43" class="st39" width="30.53" height="428.76"/>
						<rect x="489.33" y="965.43" class="st39" width="30.53" height="428.76"/>
					</g>
					<g>
						<rect x="1387.28" y="880.23" class="st39" width="28.81" height="429.88"/>
						<rect x="190.77" y="880.23" class="st39" width="30.53" height="422.41"/>
					</g>
				</g>
				<g>
					<g>
						<polygon class="st40" points="116.14,847.26 116.04,876.66 448.89,981.39 1936.42,976.6 1937.38,951.62 						"/>
						<polygon class="st29" points="447.6,951.62 116.14,847.16 1576.02,847.16 1937.38,951.62 						"/>
					</g>
					<g>
						<g>
							<g>
								<g>
									<path class="st8" d="M521.61,796.58c-0.26,2.11-1.45,4.26-3.4,5.12c-2.25,0.99-4.99,0.07-6.84-1.59
										c-1.85-1.62-3.04-3.87-4.29-6.01c-4.72-8.13-10.94-15.43-19.13-21.87c6.87,9.75,9.42,21.84,11.5,33.57
										c0.5,2.58,0.96,5.32,0.13,7.83c-0.79,2.51-3.24,4.69-5.85,4.29c-2.64-0.46-4.2-3.24-5.29-5.68
										c-3.93-8.52-7.83-17.05-10.87-27.06c2.41,9.94,4.43,19.99,6.05,30.1c0.5,3.27,0.89,6.87-0.96,9.61
										c-1.32,1.85-3.6,3.01-5.88,2.91c-2.25-0.13-4.43-1.45-5.91-3.83c-0.17,2.31-0.33,4.69-1.42,6.77
										c-1.09,2.02-3.3,3.67-5.58,3.3c-2.44-0.4-4.03-2.81-5.12-5.02c-2.58-5.25-4.43-10.84-3.77-15.46
										c-5.32,5.09-11.79,8.99-18.77,11.36c-3.17,1.06-6.41,1.82-9.71,2.21c-10.6,1.39-21.67-0.76-29.47-6.24
										c-1.82-10.9-1.88-22.1-1.06-31.72c5.68-3.3,11.33-6.61,17.05-9.94c11.99-6.97,24.15-13.97,36.61-21.18
										c18.2-7.1,39.58-5.35,56.76,5.98c6.61,7.53,11.53,16.55,14.34,26.2C521.37,792.28,521.87,794.43,521.61,796.58z"/>
									<path class="st12" d="M436.27,824.89c-3.17,1.06-6.41,1.82-9.71,2.21c-10.61,1.39-21.67-0.76-29.47-6.24
										c-1.82-10.9-1.88-22.1-1.06-31.72c5.68-3.3,11.33-6.61,17.05-9.94C419.09,795.23,426.92,810.59,436.27,824.89z"/>
								</g>
								<path class="st41" d="M355.73,582.93c-4.49-3.57-50.51,20.19-59.24,70.44c-5.39,31.15-12.46,155.94,2.05,177.31
									c14.5,21.38,114.8,6.67,114.8,6.67l-3.27-56.49c0,0-50.58-7.14-51.08-10.21c-0.5-3.07,9.45-51.9,12.26-97.23
									C373.57,635.46,366.26,591.29,355.73,582.93z"/>
							</g>
							<g>
								<g>
									<path class="st3" d="M713.92,867.44c0,4.36-3.53,7.9-7.9,7.9H483.28c-5.22,0-10.41-0.83-15.49-2.41l-74.17-23.42
										c-3.14-0.99-5.42-4.59-5.58-8.79l-0.1-2.91l59.7,9.45l-0.07,0.46h178.86l87.48,3.93L713.92,867.44z"/>
									<polygon class="st1" points="475.45,859.02 387.97,837.78 626.43,837.78 713.92,859.02 									"/>
								</g>
								<g>
									<path class="st4" d="M743.75,709.82L743.75,709.82c2.44,2.87,3.5,6.71,2.87,10.47l-23.29,141.89h-238.3l0,0
										c-4.49-3.3-6.74-8.92-5.81-14.5l21.34-129.94c0.99-6.11,6.18-10.64,12.26-10.67l221.38-1.68
										C737.87,705.36,741.37,706.98,743.75,709.82z"/>
									<path class="st42" d="M746.26,722.64l-22.89,139.58H485.1l23.29-141.93c0.56-3.4,3.47-5.91,6.84-5.91h224.16
										C743.68,714.38,746.95,718.31,746.26,722.64z"/>
									<ellipse class="st4" cx="623.69" cy="792.45" rx="33.57" ry="17.58"/>
								</g>
							</g>
						</g>
						<g>
							<g>
								<g>
									<g>
										<path class="st3" d="M1603.9,902.03l-155.77-45.99c-2.58-0.76-4.36-3.14-4.36-5.85v-6.9l146.42,8.36l160.13,38.88v2.15
											c0,5.15-4.16,9.32-9.32,9.32h-137.1V902.03z"/>
										<polygon class="st1" points="1603.9,890.57 1443.77,843.33 1590.19,843.33 1750.32,890.57 										"/>
									</g>
									<polygon class="st43" points="1584.71,848.88 1686.56,880.69 1604.33,881.72 									"/>
								</g>
								<g>
									<g>
										<path class="st4" d="M1446.61,841.41l-85.8-122.17c-1.22-1.62-1.59-3.34,0.23-5.55c0.63-0.76,3.8-4.26,3.8-4.26
											c1.02-1.16,2.54-1.75,4.06-1.62l146.92,21.34c3.6,0.3,6.84,2.35,8.62,5.48l84.77,146.49c1.52,2.64,0.89,5.98-1.49,7.9
											l-5.55,4.39L1446.61,841.41z"/>
										<path class="st42" d="M1432.87,841.41l-72.25-122.53c-0.79-1.22,0.2-2.81,1.62-2.68l141.56,20.45
											c4.96,0.43,9.38,3.27,11.86,7.57l86.56,149.2L1432.87,841.41z"/>
									</g>
									<path class="st4" d="M1447.76,796.49c1.54-7.02,14.99-10.04,30.05-6.74c15.06,3.3,26.02,11.67,24.48,18.69
										s-14.99,10.04-30.05,6.74C1457.19,811.88,1446.23,803.52,1447.76,796.49z"/>
								</g>
							</g>
							<g>
								<path class="st44" d="M1728.98,829.58l-13.97-6.34c0,0-18.83,24.91-2.18,59.14
									C1728.19,874.08,1735.16,839.03,1728.98,829.58z"/>
								<g>
									<path class="st8" d="M1725.68,863.48c-0.86,1.12-9.71,0.99-16.09,0.69c-1.62-0.13-3.04-0.2-4.16-0.3
										c-0.36,4.92-6.97,8.66-11.1,9.02c-5.05,0.5-11.76-1.35-14.57-4.86c-5.29,2.87-11.03,3.01-15.03,0.07
										c-4.06-2.94-5.75-7.53-6.41-11.89c-0.76-4.43-0.76-8.99-2.38-13.21c-1.49,10.11-3.93,21.01-7.24,31.72
										c-0.63,2.05-1.39,4.1-3.01,5.68c-1.62,1.62-4.43,2.54-6.74,1.68c-3.04-1.12-3.5-4.49-3.44-7.3
										c0.13-12.39,0.63-24.88,1.42-37.33c-3.87,9.02-7.66,17.01-12.46,24.61c-2.31,3.67-6.97,8.99-11.66,7.37
										c-2.81-0.93-1.42-5.12-0.36-8.79c3.01-10.34,5.68-15.89,10.27-29.17c2.48-7.04,5.55-14.01,13.71-17.21
										c9.65-3.8,21.08-2.38,31.29,0.13c10.27,2.48,29.67,7.47,36.41,9.55c3.37,1.06,6.74,1.92,9.85,2.68
										c8.52,2.05,15.4,3.04,15.69,3.44C1733.34,835.2,1728.09,860.14,1725.68,863.48z"/>
									<path class="st12" d="M1725.68,863.48c-0.86,1.12-9.71,0.99-16.09,0.69c2.05-3.44,3.67-7.04,4.72-10.84
										c2.48-8.72,2.38-18.14-0.3-26.73c8.52,2.05,15.4,3.04,15.69,3.44C1733.34,835.2,1728.09,860.14,1725.68,863.48z"/>
								</g>
								<path class="st45" d="M1765.16,640.45c14.9-8.03,51.27,13.68,62.74,61.38c10.04,41.86,30.59,147.41,8.99,174.3
									c-16.39,20.42-123.99,6.28-123.99,6.28c4.59-10.57,14.93-38.16,1.75-59.33c0,0,54.51-1.62,57.68-5.98
									c3.17-4.36-16.78-77.17-22.47-101.36C1744.54,693.17,1740.51,653.69,1765.16,640.45z"/>
							</g>
						</g>
						<g>
							<g>
								<path class="st32" d="M1227.05,867.44c0,4.36-3.53,7.9-7.9,7.9H996.42c-5.22,0-10.41-0.83-15.49-2.41l-74.17-23.42
									c-3.14-0.99-5.42-4.59-5.58-8.79l-0.1-2.91l59.7,9.45l-0.07,0.46h178.86l87.48,3.93L1227.05,867.44z"/>
								<polygon class="st46" points="988.55,859.02 901.07,837.78 1139.57,837.78 1227.05,859.02 								"/>
							</g>
							<g>
								<path class="st47" d="M1256.88,709.82L1256.88,709.82c2.44,2.87,3.5,6.71,2.87,10.47l-23.29,141.89h-238.3l0,0
									c-4.49-3.3-6.74-8.92-5.81-14.5l21.34-129.94c0.99-6.11,6.18-10.64,12.26-10.67l221.38-1.68
									C1250.97,705.36,1254.47,706.98,1256.88,709.82z"/>
								<path class="st32" d="M1259.36,722.64l-22.89,139.58H998.23l23.29-141.93c0.56-3.4,3.47-5.91,6.84-5.91h224.16
									C1256.81,714.38,1260.05,718.31,1259.36,722.64z"/>
								<ellipse class="st47" cx="1136.79" cy="792.45" rx="33.57" ry="17.58"/>
							</g>
						</g>
					</g>
				</g>
			</g>
		</g>
	</g>
</g>
</svg>
