<?xml version="1.0" encoding="utf-8"?>
<!-- Generator: Adobe Illustrator 23.0.1, SVG Export Plug-In . SVG Version: 6.00 Build 0)  -->
<svg version="1.1" id="Layer_1" xmlns="http://www.w3.org/2000/svg" xmlns:xlink="http://www.w3.org/1999/xlink" x="0px" y="0px"
	 viewBox="0 0 2160 2160" style="enable-background:new 0 0 2160 2160;" xml:space="preserve">
<style type="text/css">
	.st0{fill:#FFE6DE;}
	.st1{fill:#F57D00;}
	.st2{fill:#4F362F;}
	.st3{fill:#E64A13;}
	.st4{fill:#ECD5B7;}
	.st5{fill:#FABDA3;}
	.st6{fill:#D96B5A;}
	.st7{fill:#321A13;}
	.st8{fill:#FFA600;}
	.st9{fill:#3D1301;}
	.st10{fill:#FFFFFF;}
	.st11{fill:#FFA37C;}
	.st12{fill:#A23F32;}
	.st13{fill:#FF9200;}
	.st14{fill:none;}
	.st15{fill:#FF571C;}
	.st16{font-family:'Montserrat-Regular';}
	.st17{font-size:112.2476px;}
	.st18{letter-spacing:13;}
	.st19{fill:none;stroke:#FFBBA8;stroke-miterlimit:10;}
</style>
<path class="st0" d="M876.9,353.88c-94.81-27.14-208.13-11.23-289.68,42.77c-65.79,43.57-111.49,112.09-143.65,184.15
	c-109.82,246.05-68.12,552.69,103.41,760.47s464.73,306.8,727.12,245.56c262.39-61.24,481.46-279.81,543.3-542.07
	c30.3-128.51,22.11-269.48-33.99-389.96c-52.9-113.6-158.8-210.24-286.97-223.73c-71.23-7.5-142.95,3.31-214.54,5.37
	c-126.49,3.64-253.68-20.57-370.07-70.21C900.55,361.43,888.87,357.31,876.9,353.88z"/>
<g>
	<g>
		<path class="st1" d="M332.41,1618.85c111.45,17.01,222.92,30.65,335.18,41.02c6.38-73.62,12.76-147.24,19.14-220.86
			c-107.06-9.89-213.37-22.9-319.65-39.12c9.15,46.34,13.93,69.51,23.88,115.82C367.93,1557.1,356.21,1577.73,332.41,1618.85z"/>
		<path class="st2" d="M579.12,1495.52c36.15-18.25,72.07-37.11,107.62-56.51c-2.3,26.59-3.46,39.89-5.76,66.48
			C640.2,1501.96,619.82,1499.96,579.12,1495.52z"/>
	</g>
	<g>
		<path class="st1" d="M1828.92,1618.85c-111.45,17.01-222.92,30.65-335.19,41.02c-6.38-73.62-12.76-147.24-19.14-220.86
			c107.06-9.89,213.37-22.9,319.65-39.12c-9.15,46.34-13.93,69.5-23.88,115.82C1793.4,1557.1,1805.11,1577.73,1828.92,1618.85z"/>
		<path class="st2" d="M1582.21,1495.52c-36.15-18.25-72.07-37.11-107.62-56.51c2.31,26.59,3.46,39.89,5.76,66.48
			C1521.12,1501.96,1541.5,1499.96,1582.21,1495.52z"/>
	</g>
</g>
<g>
	<g>
		<path class="st3" d="M1454.41,1486.17c18.64-13.6,25.92-40.75,16.59-61.85c-5.2-11.75-15.08-23.9-10.34-35.84
			c4.82-12.16,20.72-14.03,33.05-18.39c15.38-5.44,28.21-17.72,34.3-32.86c6.1-15.14,5.37-32.88-1.95-47.46
			c-6.02-12-16.26-22.02-19.44-35.06c-4.37-17.92,5.62-35.81,14.35-52.06c8.73-16.25,16.57-36.01,8.27-52.48
			c-8.91-17.69-34.22-22.36-51.7-13.05c-17.48,9.31-27.54,28.79-31.07,48.29c-1.99,11.01-2.57,23.1-9.82,31.63
			c-7.7,9.07-20.54,11.31-31.27,16.46c-20.67,9.92-34.27,32.96-32.96,55.85c0.75,13.07,5.83,25.42,9.29,38.05
			c3.46,12.62,5.2,26.61-0.47,38.4c-4.91,10.21-14.58,17.19-21.53,26.14c-11.32,14.57-14.92,34.82-9.32,52.4
			c5.48,17.2,18.17,28.17,33.77,36.02c14.7,7.4,26.12,16.12,43.57,15.1C1437.27,1494.88,1446.68,1491.8,1454.41,1486.17z"/>
		<path class="st4" d="M1478.83,1193.7c-0.38-2.01-3.45-1.16-3.07,0.85c1.93,10.23,0.9,20.86-2.71,30.61
			c-3.81,10.28-10.5,18.62-18.9,25.55c-8.5,7.02-17.92,13.01-24.59,21.98c-5.7,7.65-8.68,17.08-6.16,26.5
			c4.22,15.76,19.56,25.47,24.42,40.88c2.96,9.36-0.32,18.47-6.6,25.65c-6.87,7.84-16,12.89-24.39,18.86
			c-9.06,6.44-17.26,14.36-19.92,25.54c-2.48,10.44-0.31,21.9,6.25,30.45c1.23,1.61,4,0.02,2.75-1.61
			c-6.05-7.89-8.23-18.32-5.93-27.99c2.46-10.35,10.06-17.66,18.45-23.63c14.49-10.31,36.22-21.93,33.55-43.09
			c-2.05-16.28-17.09-26.69-23.7-40.9c-4.13-8.89-3.02-18.19,2.21-26.4c6.05-9.5,15.64-15.72,24.27-22.63
			c9.2-7.37,16.54-16.06,20.9-27.11C1479.85,1216.57,1480.95,1204.9,1478.83,1193.7z"/>
	</g>
	<g>
		<path class="st1" d="M1554.11,1425.43c7.88-7.6,17.63-13.6,27.78-18.83c10.21-5.27,20.21-12.3,25.08-22.7
			c5.77-12.31,3.28-26.8-0.43-39.88c-3.7-13.08-8.55-26.34-7.14-39.86c1.45-13.94,9.41-26.3,18.07-37.32
			c8.66-11.02,18.35-21.48,24.33-34.15c5.98-12.67,7.65-28.46,0.08-40.25c-9.63-15.01-31.71-18.27-47.76-10.5
			c-16.04,7.78-26.56,23.94-32.51,40.75c-4.11,11.61-6.69,24.29-14.75,33.61c-16.2,18.72-48.41,17.06-63.39,36.77
			c-9.53,12.55-8.96,29.87-7.04,45.51c1.91,15.64,4.61,32.21-1.79,46.61c-8.9,20.02-33.2,30.54-40.11,51.33
			c-4.86,14.6,0.45,31.12,10.16,43.06s23.24,20.08,36.83,27.29c7.82,4.15,15.93,8.12,24.69,9.42c20.6,3.06,27.92-12.62,29.29-30.99
			c0.67-9.04-0.1-18.18,1.24-27.15C1538.79,1444.47,1545.28,1433.94,1554.11,1425.43z"/>
		<path class="st4" d="M1594.42,1219.01c-2.99,18.25-11.59,35.37-24.38,48.73c-6.55,6.84-14.03,12.29-22.22,16.99
			c-8.07,4.64-17.18,10.27-19.47,20.02c-2.16,9.23,3.48,17.48,7.15,25.47c2.08,4.54,3.34,9.22,3.03,14.24
			c-0.3,5.04-1.99,9.96-4.42,14.37c-9.98,18.07-30.98,25.7-46.15,38.42c-8.3,6.95-14.71,15.65-17.94,26.06
			c-3.09,9.95-3.23,20.72-0.3,30.72c0.62,2.11,3.92,1.21,3.3-0.91c-2.7-9.22-2.63-19.05,0.11-28.26c2.79-9.38,8.32-17.31,15.6-23.77
			c14.89-13.2,35.19-20.42,46.51-37.51c5.1-7.7,8-17.21,6.22-26.43c-1.74-9.02-8.44-16.27-9.95-25.33
			c-1.85-11.15,7.9-18.26,16.36-23.17c8.03-4.66,15.6-9.65,22.28-16.17c14.42-14.05,24.3-32.67,27.56-52.55
			C1598.08,1217.77,1594.78,1216.84,1594.42,1219.01z"/>
	</g>
	<g>
		<path class="st3" d="M1448.34,1458.44c8.78-13.05,23.01-22.3,38.49-25.05c12.36-2.19,25.03-0.38,37.59-0.13
			c12.55,0.25,25.92-1.4,35.71-9.26c13.17-10.58,16.18-28.99,19.98-45.45c3.8-16.46,11.56-34.82,27.84-39.33
			c19.07-5.28,37.99,11.69,57.7,9.98c13.34-1.16,24.25-10.55,34.86-18.73s23.55-15.88,36.62-12.95
			c14.95,3.36,23.89,21.12,20.16,35.98c-3.73,14.86-17.66,25.77-32.67,28.85c-9.11,1.87-18.91,1.35-27.22,5.53
			c-13.7,6.89-18.59,23.78-20.97,38.93c-2.38,15.15-4.33,31.84-15.51,42.34c-12.15,11.41-30.76,11.37-47.42,10.84
			c-16.66-0.53-35.4-0.05-47,11.92c-8.84,9.12-11.2,22.79-18.83,32.94c-12.52,16.65-37.04,20.19-56.91,13.92
			c-9.67-3.05-18.58-8.01-26.88-13.77c-6.92-4.8-18.92-11.67-23.33-18.96C1432.77,1493.18,1440.78,1469.65,1448.34,1458.44z"/>
		<path class="st4" d="M1713.14,1345.1c-14.27,15.44-37.88,11.78-56.67,14.88c-9.36,1.54-19.04,4.66-25.84,11.58
			c-7.16,7.28-9.69,17.14-10.79,27c-1.14,10.17-0.86,20.72-3.95,30.58c-3.22,10.28-10.64,17.6-20.52,21.67
			c-22.14,9.12-46.34,0.22-69.27,1.36c-11.68,0.58-23.83,3.55-32.58,11.75c-7.89,7.39-12.83,18.37-10.24,29.21
			c0.55,2.29,4.15,1.62,3.6-0.68c-2.39-10.03,2.48-20.08,10.01-26.63c8.32-7.23,19.69-9.69,30.45-10.05
			c22.37-0.74,45.18,6.97,67.05-0.67c9.26-3.23,17.58-9.25,22.2-18.05c4.69-8.94,5.39-19.23,6.13-29.11
			c0.73-9.89,1.28-20.66,6.85-29.24c5.47-8.41,14.74-12.52,24.26-14.5c20.38-4.23,46.03,0.64,61.68-16.29
			C1717.09,1346.19,1714.74,1343.37,1713.14,1345.1z"/>
	</g>
	<g>
		<g>
			<path class="st3" d="M655.41,1517.61c-49.32-29.79-84.09-79.73-104.85-133.48c-20.75-53.75-28.65-111.54-33.95-168.92
				c120.38,38.67,224.88,128.33,281.02,241.63C760.94,1499.06,711.34,1517.69,655.41,1517.61z"/>
			<path class="st4" d="M722.11,1479.98c-11.75-34.03-27.9-66.51-48.06-96.35c-20.94-31-46.33-58.44-73.57-83.97
				c-15.59-14.61-31.7-28.65-47.81-42.69c-2.09-1.82-5.15,1.22-3.05,3.05c28.18,24.56,56.45,49.19,81.78,76.76
				c24.52,26.69,45.63,56.3,62.44,88.42c9.43,18.01,17.48,36.71,24.11,55.92C718.85,1483.74,723.02,1482.62,722.11,1479.98z"/>
		</g>
		<g>
			<path class="st1" d="M742.64,1387c-56.96-47.2-102.33-108.29-131.04-176.47c-28.71-68.18-40.7-143.32-34.66-217.05
				c96.47,55.89,178.68,137.51,235.54,233.42C792.66,1281.84,772.96,1337.08,742.64,1387z"/>
			<path class="st4" d="M742.7,1273.81c-10.11-34.67-23.49-68.37-39.89-100.55c-16.36-32.09-35.73-62.63-57.76-91.13
				c-12.48-16.15-25.82-31.62-39.94-46.34c-1.93-2.01-4.98,1.05-3.05,3.05c24.85,25.91,47.24,54.14,66.79,84.25
				c19.46,29.96,36.18,61.74,49.75,94.8c7.65,18.65,14.3,37.71,19.95,57.07C739.32,1277.62,743.48,1276.48,742.7,1273.81z"/>
		</g>
	</g>
</g>
<g>
	<g>
		<g>
			<g>
				<g>
					<path class="st3" d="M585.11,647.43l-289.3-137.37c-4.94-2.35-11.04,0.15-13.62,5.57l-40.02,84.29
						c-2.58,5.43-0.66,11.73,4.29,14.07l289.3,137.37c4.94,2.35,11.04-0.15,13.62-5.57l40.02-84.29
						C591.97,656.08,590.05,649.78,585.11,647.43z"/>
					<path class="st2" d="M331.19,843.89L304.05,831l32.08-67.56c2.84-5.98,9.26-9.4,15.81-8.41l195.34,29.45l28.94-60.95
						l-13.28-6.31l12.89-27.14l26.85,12.75c7.49,3.56,10.69,12.52,7.13,20.01l-40.17,84.59c-2.84,5.98-9.26,9.4-15.81,8.41
						L358.49,786.4L331.19,843.89z"/>
					<path class="st1" d="M361.73,797.25l-40.84-19.39c-2.44-1.16-5.35-0.12-6.5,2.32L249.47,916.9
						c-6.51,13.71-0.67,30.11,13.04,36.62c13.71,6.51,30.11,0.67,36.62-13.04l64.92-136.72
						C365.2,801.32,364.17,798.41,361.73,797.25z"/>
				</g>
				<path class="st5" d="M356.72,888c-9.19-20.31,9.38-58.41-23.7-55c0,0-10-27.57-37.27-19.46c-27.27,8.11-59.37,51.89-49.64,79.13
					c9.73,27.24,50.91,47.35,50.91,47.35L356.72,888z"/>
				<path class="st6" d="M327.56,834.7c-5.51,2.41-11.03,4.82-16.54,7.23c-2.66,1.16-5.63,2.43-7.81,4.44
					c-2.14-4.11-4.82-7.93-8-11.32c-1.1-1.17-2.86,0.59-1.76,1.76c3.25,3.46,5.94,7.39,8.05,11.64c-0.43,0.69-0.8,1.41-1.04,2.25
					c-1.23,4.4,1.64,8.84,5.54,10.72c0.5,0.24,1.01,0.45,1.53,0.63c0.05,0.08,0.08,0.16,0.15,0.23c2.55,2.56,2.05,6.91-1.16,8.69
					c-3.55,1.96-7.61-0.21-10.69-2.22c-1.35-3.58-3.27-7.04-5.15-10.25c-2.63-4.5-5.7-8.74-9.1-12.69
					c-1.05-1.22-2.81,0.55-1.76,1.76c5.56,6.47,10.44,13.96,13.56,21.95c0.01,0.25,0.11,0.49,0.29,0.7
					c0.01,0.03,0.03,0.06,0.04,0.09c1.42,3.81,2.29,8.56-0.32,12.09c-2.75,3.73-7.76,3.48-11.67,2.01
					c-0.86-1.34-1.82-2.63-2.79-3.86c-4.64-5.9-9.32-11.77-13.99-17.66c-1-1.26-2.75,0.52-1.76,1.76
					c3.48,4.39,6.96,8.78,10.43,13.17c3.05,3.85,7.08,7.88,8.31,12.78c1.26,5.02-1.71,9.8-7.04,10.05
					c-4.76,0.22-9.61-2.68-13.17-5.62c-3.91-3.23-7.02-7.38-8.96-12.06c-0.61-1.46-3.02-0.82-2.41,0.66
					c1.46,3.52,3.46,6.77,5.97,9.62c-0.3-0.07-0.6-0.12-0.9-0.2c-0.54-0.14-1.07-0.3-1.59-0.48c-0.28-0.1-0.56-0.2-0.84-0.31
					c-0.12-0.05-0.24-0.09-0.36-0.14c-0.08-0.03-0.16-0.06-0.24-0.1c0.1,0.04,0.08,0.03-0.05-0.03c-0.6-0.26-1.37-0.2-1.71,0.45
					c-0.28,0.54-0.19,1.43,0.45,1.71c2.41,1.05,4.91,1.71,7.53,1.97c0.17,0.02,0.33-0.02,0.48-0.08c0.05,0.04,0.09,0.09,0.13,0.13
					c3.94,3.46,9.05,6.59,14.39,6.95c5.17,0.35,9.94-2.74,10.91-7.97c0.5-2.74-0.03-5.27-1.09-7.64c3.72,0.83,7.69,0.42,10.67-2.22
					c3.48-3.09,3.97-8.17,2.99-12.46c-0.04-0.18-0.1-0.37-0.15-0.55c3.62,1.89,7.86,2.98,11.43,0.47c3.28-2.32,4.22-6.55,2.62-9.96
					c2.48,0.26,5.02,0.03,7.53-0.36c-5.84,11.6-2.31,25.95,8.44,33.58c1.31,0.93,2.56-1.23,1.26-2.15
					c-10.4-7.38-13.06-21.74-6.25-32.46c0.63-0.99-0.41-2.01-1.41-1.83c-4.4,0.8-9.33,1.71-13.52-0.41
					c-3.82-1.93-5.84-6.56-2.9-10.17c2.61-3.21,7.34-4.56,10.99-6.16c4.56-2,9.12-3.99,13.69-5.99
					C330.28,836.22,329.02,834.07,327.56,834.7z"/>
				<path class="st5" d="M777.32,1049.64c0,0-29.26,119.65-68.13,180.92c-45.88,72.4-138.17,54.03-184.5,1.3
					c-16.84-19.05-58.38-71.87-101.59-127.5c-62.03-79.94-127.34-165.68-127.34-165.68L356.72,888l140.22,139.23l109.44,108.67
					c0,0,68.13-262.08,165.75-291.27L777.32,1049.64z"/>
				<path class="st2" d="M777.32,1049.64c0,0-29.26,119.65-68.13,180.92c-45.88,72.4-142.39,57.13-188.72,4.4
					c-16.84-19.05-57.48-72.3-100.69-127.93c22.79-27.44,62.16-64.19,88.53-88.05l95.83,105.07c0,0,70.38-250.22,168.01-279.41
					L777.32,1049.64z"/>
				<path class="st7" d="M607.58,1129.09c-0.67-1.02-2.33-0.07-1.65,0.96c5.98,9.1,8.34,20.35,6.39,31.07
					c-0.22,1.2,1.62,1.72,1.84,0.51C616.2,1150.41,613.86,1138.64,607.58,1129.09z"/>
				<path class="st7" d="M605.99,1136.1c-0.23-1.21-2.07-0.7-1.84,0.51c1.26,6.55-0.06,13.41-3.59,19.07c-0.65,1.04,1,2,1.65,0.96
					C606.02,1150.54,607.35,1143.16,605.99,1136.1z"/>
				<path class="st1" d="M497.44,987.04c-81.72,43.13-108.64,100.86-108.64,100.86l60.97,74.59c0,0,61.29-77.18,104.1-106.37
					L497.44,987.04z"/>
				<g>
					<g>
						<g>
							<path class="st2" d="M1148.07,1526.82c-8.76,17.78-388.68,49.29-482.73-3.21l106.78-678.97l90.33-29.94l89.51-0.82
								l94.3,23.58L1148.07,1526.82z"/>
						</g>
					</g>
				</g>
				<path class="st7" d="M755.32,947.3c-4.66,34.87-10.52,69.58-17.58,104.05c-2.01,9.79-4.11,19.57-6.3,29.32
					c-0.35,1.56,2.05,2.23,2.4,0.66c7.8-34.63,14.4-69.53,19.77-104.62c1.5-9.79,2.9-19.59,4.21-29.41
					C758.03,945.72,755.53,945.73,755.32,947.3z"/>
				<path class="st8" d="M733.74,1088.73l26.38-36.51l33.62-214.74l45.44-15.06l-12.25,192.99h143.34l-3.75-197.89l54.44,13.61
					l3.3,216.56l44.82,28.54l79,450.6c0,0-282.4,66.04-482.73-3.21L733.74,1088.73z"/>
				<path class="st1" d="M1012.18,1034.26c0,8.79-7.13,15.92-15.92,15.92s-15.92-7.13-15.92-15.92c0-8.79,7.13-15.92,15.92-15.92
					S1012.18,1025.47,1012.18,1034.26z"/>
				<circle class="st1" cx="795.98" cy="1034.26" r="15.92"/>
				<path class="st1" d="M824.85,1062.21l-0.01,0.13c-2.3,42.13,31.24,77.56,73.44,77.56h0c41.41,0,74.65-34.17,73.52-75.56
					l-0.06-2.14H824.85z"/>
				<path class="st5" d="M1154.78,1267.98c-9.37,13.34-57.16,65.92-106.54,119.42c-59.82,64.7-122.09,130.85-122.09,130.85
					l-57.04-52.73l96.29-143.82l93.05-130.01l-33.19-162.59l20.99-191.63c79.64,29.87,120.94,278.32,126.58,305.52
					C1180.08,1177.83,1182.52,1228.66,1154.78,1267.98z"/>
				<path class="st5" d="M888.26,1453.25c-8.03,0.45-11.55,10.21-24.58,12.11c-13.04,1.9-34.24-6.36-43.67-2.23
					c-9.43,4.13-69.32,50.41-58.06,62.94c6.7,7.45,38.54-19.73,39.61-19.45c1.07,0.28-35.06,38.58-24.73,47.83
					c10.33,9.25,46.01-40.07,47.34-39.41c1.33,0.66-23.3,41.21-11.84,47.47c11.47,6.26,31.38-35.47,32.78-35.38
					c1.4,0.1-5.95,38.19,2.85,40.93c8.79,2.73,19.8-43.44,21.89-43.3c2.09,0.14,20.13,10.12,35.98,7.52
					c15.85-2.61,36.13-30.83,31.98-42.61C933.65,1477.88,898.7,1452.66,888.26,1453.25z"/>
				<path class="st2" d="M1154.78,1267.98c-9.37,13.34-52.44,69.3-101.83,122.8c-30.33-18.21-67.81-45.64-92.42-71.02l91.77-127.77
					l-28.83-173.65l22.78-180.87c79.64,29.87,120.94,278.32,126.58,305.52C1180.08,1177.83,1182.52,1228.66,1154.78,1267.98z"/>
				<path class="st1" d="M987.12,1263.66l-42.48,59.35c51.24,59.99,109.61,78.48,109.61,78.48l49.62-58.37
					C1039.01,1322.03,987.12,1263.66,987.12,1263.66z"/>
			</g>
			<g>
				<path class="st9" d="M970.99,718.43c35.98-32.29,59.48-78.15,64.69-126.21c1.42-13.12,1.45-26.83-3.69-38.99
					c-5.14-12.16-16.44-22.43-29.63-23.05c-3.09-10.43-10.63-19.12-19.53-25.36c-8.91-6.24-19.16-10.26-29.46-13.76
					c-27.87-9.45-56.9-15.47-86.23-17.86c-19.28-1.58-39.4-1.45-57.03,6.53c-27.64,12.51-44.05,42.56-48.4,72.59
					c-4.34,30.03,1.42,60.5,7.16,90.3c15.02,10.27,32.58,18.2,50.33,22.2c21.12,4.76,42.66,7.5,63.72,12.51s41.94,12.47,59.18,25.57
					C950.71,709.42,960.2,718.2,970.99,718.43z"/>
				<g>
					<path class="st5" d="M985.53,676.16c0,0-33.38,67.96-34.99,158.86c-19.27,41.05-74.86,34.41-88.24-2.65
						c1-34.56-4.93-50.81-15.81-62.8c-0.9-1.01-1.8-1.89-2.75-2.85c-0.64-0.68-1.29-1.28-2.01-1.92c-1.28-1.2-2.77-2.31-4.18-3.55
						c-2-1.59-4.08-3.18-6.25-4.81l-0.04,0c-8.54-6.39-18.55-13.14-29.66-23.17c-16.19-14.5-28.21-34.37-32.81-65.34
						c-0.1-0.37-0.15-0.74-0.2-1.15c-0.1-0.45-0.15-0.91-0.21-1.36c-0.11-0.83-0.18-1.57-0.24-2.35c-0.1-0.37-0.11-0.7-0.16-1.03
						c-3.41-30.31-0.37-70.73,11.82-126.47c12.66-57.78,153.63-78.48,191.37-4.14C986.7,562.11,985.53,676.16,985.53,676.16z"/>
					<path class="st9" d="M770.7,537.97c5.41,10.95,18.13,15.97,29.97,18.94c38.73,9.71,80.38,7.44,117.83-6.44
						c-1.31,7.46,1.15,15.49,6.41,20.94c5.26,5.45,13.19,8.19,20.7,7.15c-5.08,15.76-3.62,33.52,3.96,48.24
						c7.59,14.72,21.21,26.21,36.99,31.21c14.94-22.01,21.34-49.21,17.77-75.56c-3.57-26.35-17.15-51.23-37.4-68.47
						c-16.34-13.91-36.58-22.77-57.52-27.51c-20.93-4.74-42.59-5.49-64.03-4.48c-17.53,0.82-35.57,2.99-50.84,11.65
						C779.29,502.29,762.92,522.24,770.7,537.97z"/>
					<g>
						<g>
							<path class="st6" d="M834.86,652.52c-2.03-1.03-4.19-1.66-6.46-1.79c-2.03-0.12-4.27,0.14-5.95,1.37
								c-1.81,1.31-2.72,3.35-2.9,5.54c-0.17,2.09,0.51,4.16,1.29,6.07c0.42,1.03,1.4,1.89,2.6,1.52c0.98-0.31,1.97-1.49,1.52-2.6
								c-0.57-1.4-1.19-2.92-1.17-4.45c0.01-0.79,0.21-1.59,0.68-2.22c-0.03,0.04-0.05,0.08-0.08,0.12
								c0.43-0.68,1.26-0.92,2.01-1.05c0.06-0.01,0.12-0.02,0.2-0.03c0.16,0,0.32-0.02,0.48-0.03c0.42-0.02,0.85-0.01,1.27,0.02
								c0.22,0.01,0.43,0.03,0.65,0.05c0.11,0.01,0.12,0.01,0.16,0.01c0.04,0.01,0.04,0.01,0.14,0.03c1.33,0.24,2.45,0.78,3.7,1.23
								c0.94,0.34,2.1,0.06,2.6-0.86C836.11,654.48,835.92,653.06,834.86,652.52z"/>
							<path d="M787.86,599.08c11.17-6.04,24.72-6.62,36.11-0.71c2.79,1.44,4.33,5.14,2.75,8.04c-2.05,3.76-5.72,3.75-9.16,2.19
								c-3.07-1.39-6.39-2.24-9.75-2.51c0.01-0.19,0.3,0.14,0.11,0.13c-4.31-0.24-8.56,0.64-12.49,2.4
								c-0.23,0.1-0.46,0.22-0.83,0.39c-2.75,1.46-6.45,1.36-8.29-1.57C784.75,604.93,784.91,600.68,787.86,599.08z"/>
							<path d="M860.29,599.59c11.83-4.61,25.35-3.51,35.92,3.76c2.59,1.78,3.66,5.64,1.74,8.32c-1.86,2.59-5.54,3.64-8.31,1.74
								c-1.06-0.73-2.17-1.36-3.29-2c-0.11-0.06-0.09-0.05-0.16-0.08c-0.2-0.09-0.41-0.19-0.61-0.27c-0.44-0.19-0.89-0.37-1.34-0.54
								c-1.2-0.45-2.43-0.83-3.68-1.13c-0.31-0.08-2.31-0.68-0.77-0.19c-0.51-0.16-1.14-0.17-1.67-0.24c-1.2-0.14-2.4-0.21-3.6-0.22
								c-0.64,0-1.28,0.03-1.92,0.05c-0.07,0-0.09,0-0.14,0c-0.09,0.01-0.22,0.03-0.41,0.05c-1.19,0.15-2.38,0.36-3.55,0.64
								c-0.62,0.15-1.24,0.32-1.86,0.51c-0.24,0.08-0.49,0.16-0.73,0.24c-0.05,0.02-0.02,0.01-0.08,0.03
								c-0.02,0.01-0.04,0.01-0.05,0.01c-0.02,0.01-0.04,0.01-0.06,0.02c0.02-0.01,0.02-0.01,0.04-0.01
								c-2.91,1.1-6.57,0.55-8.03-2.58C856.48,605,857.17,600.81,860.29,599.59z"/>
							<path class="st6" d="M856.45,681.64c-7.65,5.82-17.35,8.5-26.9,7.62c-2.64-0.24-2.86,3.87-0.23,4.11
								c10.66,0.98,21.37-2.19,29.87-8.66C861.31,683.1,858.55,680.04,856.45,681.64z"/>
							<g>
								<g>
									<path d="M883.72,640.33c0.18,5.36-4.02,9.86-9.39,10.03c-5.36,0.18-9.86-4.02-10.03-9.39c-0.18-5.36,4.02-9.86,9.39-10.03
										C879.05,630.77,883.55,634.97,883.72,640.33z"/>
									<path class="st10" d="M873.34,637.57c0.05,1.56-1.17,2.87-2.74,2.92c-1.56,0.05-2.87-1.17-2.92-2.74
										c-0.05-1.56,1.17-2.87,2.74-2.92C871.98,634.78,873.29,636.01,873.34,637.57z"/>
								</g>
								<g>
									<path d="M812.84,638.38c0.18,5.36-4.02,9.86-9.39,10.03c-5.36,0.18-9.86-4.02-10.03-9.39c-0.18-5.36,4.02-9.86,9.39-10.03
										C808.17,628.81,812.66,633.01,812.84,638.38z"/>
									<path class="st10" d="M802.46,635.61c0.05,1.56-1.17,2.87-2.74,2.92c-1.56,0.05-2.87-1.17-2.92-2.74
										c-0.05-1.56,1.17-2.87,2.74-2.92C801.09,632.82,802.4,634.05,802.46,635.61z"/>
								</g>
							</g>
						</g>
					</g>
					<g>
						<path class="st5" d="M1016.18,679.69c-12.46,13.97-31.55,17.28-42.64,7.4c-11.09-9.89-9.98-29.23,2.48-43.21
							c12.46-13.97,31.55-17.28,42.64-7.39C1029.75,646.37,1028.64,665.71,1016.18,679.69z"/>
						<path class="st6" d="M1010.59,643.26c-5.03-2.86-11.85-2.94-18.24-0.2c-3.18,1.36-5.51,3.07-7.13,5.21
							c-2.14,2.84-2.82,6.46-1.78,9.46c0.93,2.69,3,4.48,4.83,6.06c1.32,1.14,2.57,2.22,3.26,3.49c1.05,1.94,0.69,4.61-0.85,6.2
							c-1.53,1.59-4.18,2.04-6.16,1.05c-1.17-0.58-2.57-0.11-3.16,1.05c-0.58,1.16-0.11,2.57,1.05,3.15
							c1.27,0.64,2.66,0.96,4.07,1.01c2.79,0.08,5.62-0.96,7.58-3c2.95-3.06,3.62-7.98,1.59-11.71c-1.09-2.01-2.8-3.49-4.31-4.8
							c-1.51-1.31-2.94-2.55-3.46-4.05c-0.53-1.51-0.1-3.5,1.09-5.08c0.48-0.63,1.13-1.2,1.84-1.75c2.34,0.05,5.23,0.86,6.66,2.51
							c1.61,1.87,2.31,4.53,1.84,6.95c-0.25,1.27,0.58,2.51,1.86,2.76c0.13,0.03,0.26,0.04,0.38,0.04c1.13,0.03,2.15-0.75,2.37-1.9
							c0.76-3.85-0.32-7.93-2.88-10.91c-0.96-1.11-2.17-1.88-3.44-2.51c3.92-0.93,7.75-0.61,10.68,1.06
							c3.62,2.05,6.24,7.15,4.23,11.18c-0.58,1.16-0.11,2.57,1.05,3.16c1.16,0.58,2.57,0.11,3.15-1.05
							C1019.63,654.76,1016.83,646.81,1010.59,643.26z"/>
					</g>
				</g>
				<g>
					<path class="st8" d="M755.65,539.56l286.99,48.82c6.78-49.27-4.84-137.82-125.67-154.96
						C785.33,414.74,755.65,539.56,755.65,539.56z"/>
					<path class="st1" d="M755.65,539.56c-47.55-7.43-83.02,49.33,173.69,29.55L755.65,539.56z"/>
					<path class="st1" d="M796.79,546.56c0,0,9.53-103.74,86.91-119.98c43.14-4.14,64.5,13.47,64.5,13.47
						c-71.13-8.53-91.06,116.78-91.06,116.78L796.79,546.56z"/>
				</g>
			</g>
		</g>
	</g>
	<g>
		<path class="st7" d="M1183.46,569.74c-39.96,68.81-20.67,158.52-53.36,231.06c-13.87,30.77-36.97,58.19-41.94,91.57
			c-5.57,37.49,13.95,75.57,42.92,100.01c28.97,24.44,66.12,37.04,103.23,44.73c58.75,12.16,119.77,13.21,178.9,3.08
			c30.18-5.17,62.33-14.85,80.16-39.74c15.95-22.27,16.81-52.36,10.25-78.95c-6.56-26.6-19.64-51.04-29.9-76.43
			c-24.09-59.64-32.54-125.52-24.28-189.31c3.88-29.96,11.36-60.46,4.88-89.97c-5.47-24.91-21.15-47.42-42.63-61.16
			c-15.95-10.21-35.15-15.66-54.09-15.3c-7.41,0.14-13.37,2.11-20.33,4.13c-7.56,2.19-14.71,1.67-22.5,1.69
			c-33.76,0.1-67.29,12-94.01,32.54C1205.8,539.16,1192.94,553.42,1183.46,569.74z"/>
		<g>
			<path class="st11" d="M1687.8,1116.66c3.36-7.3,13.73-7,20.28-18.43c6.54-11.43,6.64-34.19,13.93-41.44
				c7.3-7.26,72.31-46.01,79.84-30.94c4.48,8.96-32.48,28.62-32.62,29.72c-0.14,1.1,48.75-18.48,53.56-5.47
				c4.82,13-54.14,28.11-54.02,29.59c0.12,1.48,46.88-6.57,48.51,6.39c1.62,12.96-44.51,16.19-44.93,17.53
				c-0.42,1.33,37.71,8.47,37.03,17.65c-0.68,9.18-47.68,2.49-48.31,4.49c-0.63,2,2.04,22.44-6.2,36.23
				c-8.24,13.79-41.93,22.31-51.37,14.13C1694.08,1167.92,1683.43,1126.15,1687.8,1116.66z"/>
			<path class="st10" d="M1398.84,872.86c84.4,37.32,56.54,306.15,56.54,306.15l244-79.83c25.61,24.87,30.41,82.35,30.41,82.35
				s-234.95,80.39-280.93,91.21c-66.8,15.73-94.86-33.56-92.26-65.99C1359.19,1174.32,1398.84,872.86,1398.84,872.86z"/>
		</g>
		<g>
			<path class="st3" d="M1539.83,1688.32H1031.8c8.83-73.86,22.58-156.33,43.91-221.71c1.71-5.44,3.56-10.8,5.44-15.98l400.32-4.8
				l5.01,20.78L1539.83,1688.32z"/>
		</g>
		<g>
			<g>
				<g>
					<g>
						<g>
							<g>
								<g>
									<g>
										<g>
											<g>
												<g>
													<g>
														<g>
															<g>
																<g>
																	<g>
																		<g>
																			<g>
																				<g>
																					<g>
																						<g>
																							<g>
																								<g>
																									<path class="st3" d="M1081.15,1450.62c251.2,56.17,400.32-4.8,400.32-4.8
																										c-9.53-29.31-65.54-298.26-65.54-298.26c56.3-19.16,62.61-117.2,0.19-176.36l-17.27-98.35l-64.37-23.02
																										l-84.34-0.58l-85.29,27.5l-8.71,414.9L1081.15,1450.62z"/>
																								</g>
																							</g>
																						</g>
																					</g>
																				</g>
																			</g>
																		</g>
																	</g>
																</g>
															</g>
														</g>
													</g>
												</g>
											</g>
										</g>
									</g>
								</g>
							</g>
						</g>
					</g>
				</g>
			</g>
		</g>
		<path class="st10" d="M1229.1,856.04l58.73,419.72l-19.34,386.78c0,0-123.81,21.4-260.02,0c0,0,43.61-155.66,58.29-196.52
			c14.68-40.86,79.86-179.01,79.86-179.01l18.22-410.25L1229.1,856.04z"/>
		<path class="st4" d="M1446.75,1006.52c-7.51-14.2-17.08-27.29-28.32-38.77c-0.03-0.03-0.06-0.04-0.09-0.06
			c-4.48-22.64-8.96-45.28-13.45-67.93c-1.29-6.5-2.57-12.99-3.86-19.49c-0.31-1.57-2.72-0.91-2.41,0.66l13.62,68.81
			c1.29,6.5,2.57,12.99,3.86,19.48c0.13,0.65,0.62,0.9,1.13,0.88c19.11,19.71,33.17,44.18,40.45,70.66
			c7.7,28.04,7.85,59.6-7.61,85.12c-7.35,12.13-17.88,22.3-30.8,28.31c-1.45,0.68-0.19,2.83,1.26,2.15
			c24.64-11.46,39.85-36.94,43.65-63.21C1468.45,1063.55,1460.57,1032.68,1446.75,1006.52z"/>
		<g>
			<path class="st4" d="M1240.53,1385.75c-26.24-0.17-52.42-4.13-77.53-11.75c-7.06-2.14-14.03-4.58-20.9-7.28
				c-1.14-0.45-1.64,1.4-0.51,1.84c24.5,9.66,50.37,15.74,76.6,18.06c7.43,0.66,14.88,1,22.33,1.05
				C1241.76,1387.67,1241.76,1385.76,1240.53,1385.75z"/>
			<polygon class="st4" points="1216.93,860.05 1216.11,986.56 1231.51,995.87 1213.27,1000.98 1208.64,1053.52 1266.32,1122.03 
				1229.1,856.04 			"/>
			<path class="st10" d="M1351.81,856.04l41.27,411.51l17.51,384.61c0,0,83.02,6.49,134.91,0l-118.54-500.06
				c50.44-35.02,49.33-128.96-8.9-183.55l-19.21-95.69L1351.81,856.04z"/>
			<path class="st4" d="M1470.51,1369.45c-14.98,6.53-30.97,10.81-47.22,12.59c-4.55,0.5-9.11,0.8-13.68,0.92
				c-1.23,0.03-1.23,1.94,0,1.91c16.6-0.44,33.13-3.37,48.85-8.72c4.41-1.5,8.74-3.2,13.01-5.06
				C1472.59,1370.61,1471.62,1368.96,1470.51,1369.45z"/>
			<polygon class="st4" points="1362.6,859.9 1389.84,978.61 1380.44,987.04 1394.06,989.04 1408.98,1042.82 1378.49,1122.03 
				1351.81,856.04 			"/>
		</g>
		<g>
			<path class="st11" d="M1464.78,1107.33c9.3-18.5-3.55-38.78,13.59-41.34c17.77-2.66,16.43,41.64,16.85,42.67
				c0.41,1.03,79.98-45.76,88.82-33.91c6.14,8.23-32.18,38.23-32.18,38.23s68.03,5.93,67.06,17.13c-0.98,11.2-56.06,6.59-56.06,6.59
				s44.51,30.41,39.84,37.23c-4.67,6.83-48.21-18.47-48.21-18.47s26.04,41.16,16.67,42.92c-9.36,1.76-36-32.01-36-32.01
				s-11.36,18.66-39.2,21.39c-28.32,2.78-46.75-23.73-46.75-23.73C1439.29,1145.19,1460.46,1115.92,1464.78,1107.33z"/>
			<path class="st10" d="M1164.84,876.76c-80.77,24.99-74.24,292.2-74.61,322.04c-0.34,26.92,5.2,72.12,57.08,81.4
				c59.83,10.7,337.09-87.21,337.09-87.21c6.63-38.29-20.13-84.5-20.13-84.5l-268.35,65.02l8.14-181.6L1164.84,876.76z"/>
			<path class="st4" d="M1454.13,1109.19c-36.71,8.82-73.42,17.64-110.13,26.45c-36.71,8.82-73.42,17.64-110.13,26.45
				c-14.36,3.45-28.72,6.9-43.08,10.35c1.58-22.87,3.17-45.74,4.75-68.61c1.61-23.2,3.22-46.4,4.82-69.61
				c0.9-13.05,1.81-26.1,2.71-39.15c0.11-1.6-2.38-1.6-2.49,0c-1.61,23.2-3.22,46.4-4.82,69.61c-1.61,23.2-3.22,46.4-4.82,69.61
				c-0.9,12.92-1.79,25.85-2.69,38.77c-5.37,1.29-10.74,2.58-16.11,3.87c-1.56,0.37-0.9,2.78,0.66,2.4
				c36.71-8.82,73.42-17.64,110.13-26.45l110.13-26.45c20.57-4.94,41.15-9.88,61.72-14.83
				C1456.35,1111.22,1455.69,1108.81,1454.13,1109.19z"/>
			<path class="st4" d="M1477.35,1190.31c-21.35,9.19-42.95,17.77-64.78,25.74c-21.83,7.97-43.88,15.33-66.12,22.06
				c-22.14,6.7-44.46,12.78-66.94,18.24c-22.48,5.45-45.11,10.28-67.86,14.46c-22.67,4.17-46.44,9.18-69.51,5.33
				c-2.87-0.48-5.7-1.11-8.51-1.87c-1.55-0.42-2.21,1.98-0.66,2.4c22.7,6.16,46.4,2.36,69.13-1.62c23-4.03,45.88-8.72,68.61-14.04
				c22.84-5.35,45.52-11.35,68.02-17.99c22.39-6.61,44.6-13.84,66.58-21.7c21.98-7.86,43.74-16.34,65.25-25.43
				c2.69-1.14,5.37-2.28,8.05-3.43C1480.08,1191.83,1478.81,1189.68,1477.35,1190.31z"/>
		</g>
		<g>
			<g>
				<path class="st8" d="M1208.1,980.23l-9.87-1.43c0.62-4.28,1.24-9.02,1.9-14.11c7.07-54.41,18.91-145.49,91.55-145.55
					c0.02,0,0.04,0,0.06,0c86.16,0,108.72,153.16,109.64,159.68l-9.88,1.39c-0.21-1.51-22.25-151.09-99.77-151.09
					c-0.02,0-0.03,0-0.05,0c-63.88,0.05-75.02,85.69-81.67,136.86C1209.35,971.12,1208.73,975.91,1208.1,980.23z"/>
				<path class="st2" d="M1234.04,1154.74h-13.84v-9.98h13.84c2.09,0,4.02-0.85,5.44-2.38c1.41-1.53,2.09-3.51,1.92-5.59
					c-8.86-106.38-25.98-153.99-39.02-153.99c-13.04,0-30.16,47.61-39.02,153.99c-0.17,2.07,0.51,4.06,1.92,5.59
					c1.41,1.54,3.34,2.38,5.44,2.38h13.84v9.98h-13.84c-4.84,0-9.5-2.04-12.78-5.6c-3.27-3.56-4.92-8.36-4.52-13.17
					c1.71-20.57,5.64-60.28,12.71-95.02c9.45-46.47,20.97-68.12,36.26-68.12c15.29,0,26.81,21.64,36.26,68.12
					c7.06,34.75,10.99,74.45,12.71,95.02c0.4,4.82-1.25,9.62-4.52,13.17C1243.54,1152.7,1238.88,1154.74,1234.04,1154.74z"/>
				<path class="st2" d="M1186.9,1158.97h-11.71c-0.52,0-0.94-0.42-0.94-0.94v-16.38c0-0.52,0.42-0.94,0.94-0.94h11.71
					c0.52,0,0.94,0.42,0.94,0.94v16.38C1187.84,1158.56,1187.42,1158.97,1186.9,1158.97z"/>
				<path class="st2" d="M1226.49,1158.97h-11.71c-0.52,0-0.94-0.42-0.94-0.94v-16.38c0-0.52,0.42-0.94,0.94-0.94h11.71
					c0.52,0,0.94,0.42,0.94,0.94v16.38C1227.43,1158.56,1227.01,1158.97,1226.49,1158.97z"/>
			</g>
			<path class="st2" d="M1421.95,984.49c0,12.9-10.45,23.35-23.35,23.35c-12.9,0-23.35-10.45-23.35-23.35
				c0-12.9,10.45-23.35,23.35-23.35C1411.5,961.14,1421.95,971.59,1421.95,984.49z"/>
		</g>
		<g>
			<g>
				<path class="st11" d="M1426.18,696.07c-0.03,0.58-0.12,1.17-0.15,1.76c-0.08,0.69-0.11,1.28-0.19,1.97
					c-3.53,32.89-15.34,53.72-31.79,69.26c-8.81,8.38-17.02,14.56-24.24,20.07c-2.32,1.78-4.49,3.45-6.6,5.11
					c-1.65,1.28-3.19,2.61-4.78,3.99c-16.1,13.67-25.15,28.68-22.85,71.64c-12.64,37.46-68.32,45.56-88.61,4.8
					c-2.2-52.03-14.46-96.37-24.71-124.83c-2.6-7.43-5.11-13.75-7.25-18.82c-4.06-9.71-6.9-15.02-6.9-15.02
					s-3.71-114.41,11.11-145.64c36.13-75.35,178.07-57.91,192.14-0.17C1424.84,625.35,1428.85,665.71,1426.18,696.07z"/>
				<path class="st7" d="M1429.05,643.97c-17.38-30.6-43.4-56.23-74.25-73.14c-16.26,25.32-44.23,42.53-74.2,45.25
					c-1.7,21.31-11.27,41.9-26.48,56.92c-15.2,15.03-35.91,24.36-57.23,25.81c-2.98-27.59-6.12-56.18-2.72-83.72
					c3.4-27.54,13.8-55.13,33.96-74.2c23.86-22.57,58.28-30.51,91.13-31.06c24.79-0.42,50.38,3.11,71.73,15.7
					c19.42,11.45,34.39,30.25,41.22,51.74C1439.03,598.76,1438.31,623.41,1429.05,643.97z"/>
				<g>
					<path class="st11" d="M1177.46,720.26c12.83,13.73,32.06,16.61,42.96,6.42c10.9-10.18,9.33-29.57-3.5-43.3
						c-12.83-13.73-32.06-16.61-42.96-6.42C1163.07,687.14,1164.63,706.53,1177.46,720.26z"/>
					<path class="st6" d="M1182.22,683.58c4.98-2.99,11.82-3.23,18.29-0.63c3.23,1.29,5.6,2.95,7.28,5.06c2.22,2.8,2.98,6.42,2,9.45
						c-0.87,2.72-2.91,4.56-4.7,6.19c-1.3,1.18-2.53,2.29-3.19,3.58c-1.01,1.97-0.59,4.64,0.99,6.2c1.57,1.56,4.24,1.95,6.21,0.91
						c1.16-0.61,2.58-0.17,3.19,0.98c0.61,1.15,0.17,2.58-0.98,3.19c-1.26,0.67-2.65,1.03-4.06,1.1c-2.8,0.15-5.66-0.84-7.68-2.83
						c-3.03-3-3.82-7.92-1.87-11.71c1.05-2.05,2.73-3.57,4.21-4.91c1.49-1.35,2.89-2.62,3.38-4.15c0.5-1.53,0.02-3.51-1.21-5.07
						c-0.5-0.63-1.16-1.18-1.88-1.71c-2.34,0.1-5.23,0.98-6.62,2.68c-1.57,1.92-2.21,4.6-1.68,7.01c0.28,1.27-0.52,2.53-1.8,2.81
						c-0.13,0.03-0.25,0.05-0.38,0.05c-1.13,0.06-2.17-0.7-2.42-1.85c-0.85-3.85,0.14-7.96,2.64-11.02c0.93-1.13,2.13-1.93,3.4-2.6
						c-3.95-0.84-7.79-0.43-10.69,1.31c-3.58,2.14-6.1,7.32-3.98,11.32c0.61,1.15,0.17,2.58-0.98,3.19
						c-1.15,0.61-2.58,0.17-3.19-0.98C1173.41,695.33,1176.04,687.28,1182.22,683.58z"/>
				</g>
				<g>
					<g>
						<path class="st6" d="M1361.35,687.06c2.03-1.03,4.18-1.65,6.46-1.79c2.03-0.12,4.26,0.14,5.95,1.36
							c1.81,1.31,2.72,3.35,2.9,5.54c0.17,2.09-0.51,4.16-1.29,6.07c-0.42,1.03-1.4,1.89-2.6,1.52c-0.98-0.3-1.96-1.49-1.52-2.6
							c0.57-1.4,1.19-2.91,1.17-4.45c-0.01-0.79-0.21-1.59-0.68-2.22c0.03,0.04,0.05,0.08,0.08,0.12c-0.43-0.68-1.26-0.92-2-1.05
							c-0.06-0.01-0.11-0.02-0.2-0.03c-0.16,0-0.32-0.02-0.48-0.03c-0.42-0.02-0.85-0.01-1.27,0.02c-0.22,0.01-0.43,0.03-0.65,0.06
							c-0.11,0.01-0.12,0.01-0.16,0.01c-0.04,0.01-0.04,0.01-0.14,0.03c-1.32,0.24-2.45,0.78-3.7,1.22c-0.94,0.34-2.1,0.06-2.6-0.86
							C1360.11,689.03,1360.3,687.6,1361.35,687.06z"/>
						<path d="M1408.31,633.68c-11.16-6.03-24.7-6.61-36.08-0.71c-2.79,1.44-4.33,5.14-2.75,8.03c2.04,3.75,5.71,3.75,9.15,2.19
							c3.07-1.39,6.38-2.24,9.74-2.51c-0.01-0.18-0.3,0.14-0.11,0.13c4.3-0.24,8.56,0.64,12.48,2.4c0.23,0.1,0.46,0.22,0.83,0.39
							c2.75,1.45,6.45,1.36,8.28-1.57C1411.42,639.52,1411.25,635.27,1408.31,633.68z"/>
						<path d="M1335.95,634.18c-11.82-4.61-25.32-3.5-35.89,3.76c-2.59,1.78-3.66,5.63-1.74,8.31c1.86,2.59,5.54,3.64,8.31,1.74
							c1.06-0.73,2.17-1.36,3.29-2c0.11-0.06,0.09-0.05,0.16-0.08c0.2-0.09,0.41-0.18,0.61-0.27c0.44-0.19,0.89-0.37,1.34-0.54
							c1.2-0.45,2.43-0.83,3.67-1.13c0.31-0.08,2.31-0.68,0.77-0.19c0.51-0.16,1.13-0.17,1.67-0.24c1.19-0.14,2.4-0.21,3.6-0.22
							c0.64,0,1.28,0.03,1.92,0.05c0.07,0,0.09,0,0.14,0c0.09,0.01,0.22,0.03,0.41,0.05c1.19,0.15,2.38,0.36,3.55,0.64
							c0.62,0.15,1.24,0.32,1.85,0.51c0.24,0.08,0.49,0.16,0.73,0.24c0.05,0.02,0.02,0.01,0.08,0.03c0.02,0.01,0.04,0.01,0.05,0.01
							c0.02,0.01,0.04,0.01,0.06,0.02c-0.02-0.01-0.02-0.01-0.04-0.01c2.91,1.1,6.57,0.55,8.02-2.58
							C1339.76,639.59,1339.07,635.4,1335.95,634.18z"/>
						<path class="st12" d="M1339.79,716.16c7.64,5.82,17.33,8.49,26.87,7.61c2.64-0.24,2.86,3.87,0.23,4.11
							c-10.65,0.98-21.35-2.19-29.84-8.65C1334.93,717.62,1337.69,714.56,1339.79,716.16z"/>
						<g>
							<g>
								<path d="M1312.54,674.89c-0.18,5.36,4.02,9.85,9.38,10.02c5.36,0.18,9.85-4.02,10.03-9.38c0.18-5.36-4.02-9.85-9.38-10.03
									C1317.2,665.33,1312.72,669.53,1312.54,674.89z"/>
								<path class="st10" d="M1322.91,672.13c-0.05,1.56,1.17,2.87,2.73,2.92c1.56,0.05,2.87-1.17,2.92-2.73
									c0.05-1.56-1.17-2.87-2.73-2.92C1324.27,669.34,1322.96,670.57,1322.91,672.13z"/>
							</g>
							<g>
								<path d="M1383.35,672.93c-0.18,5.36,4.02,9.85,9.38,10.03c5.36,0.18,9.85-4.02,10.02-9.38c0.18-5.36-4.02-9.85-9.38-10.02
									C1388.02,663.38,1383.53,667.58,1383.35,672.93z"/>
								<path class="st10" d="M1393.73,670.17c-0.05,1.56,1.17,2.87,2.73,2.92c1.56,0.05,2.87-1.17,2.92-2.73
									c0.05-1.56-1.17-2.87-2.73-2.92C1395.09,667.39,1393.78,668.61,1393.73,670.17z"/>
							</g>
						</g>
					</g>
				</g>
			</g>
		</g>
	</g>
</g>
<g>
	<g>
		<path class="st13" d="M1582.22,1495.52c8.01,73.47,16.02,146.94,24.03,220.4c-350.48,36.15-700.68,36.15-1051.16,0
			c8.01-73.47,16.02-146.94,24.03-220.4C913.61,1529.93,1247.72,1529.93,1582.22,1495.52z"/>
	</g>
	<path id="SVGID_x5F_1_x5F_" class="st14" d="M555.08,1672.05c350.48,36.15,700.68,36.15,1051.16,0"/>
	<text>	<textPath  xlink:href="#SVGID_x5F_1_x5F_" startOffset="0.5%">
<tspan  class="st10 st16" style="font-size:154.2329px; letter-spacing:140;">SERVICES ONE</tspan>	</textPath>
</text>
</g>
<g>
	<text transform="matrix(1 0 0 1 981.2197 1874.623)" class="st15 st16 st17 st18">ON</text>
	<g>
		<circle class="st3" cx="1276.29" cy="1837.8" r="9.52"/>
		<path class="st3" d="M894.55,1837.8c0,5.26-4.26,9.52-9.52,9.52c-5.26,0-9.52-4.26-9.52-9.52c0-5.26,4.26-9.52,9.52-9.52
			C890.29,1828.27,894.55,1832.54,894.55,1837.8z"/>
	</g>
</g>
<g>
	<path class="st19" d="M1682.88,980.58l89.16-103.34c13.16,2.64,27.33-1.69,36.72-12.58c9.9-11.48,11.82-27.13,6.27-40.2l-21.57,25
		l-25.67-22.15l21.57-25c-13.74-3.58-28.95,0.61-38.85,12.09c-9.39,10.89-11.6,25.53-7.06,38.17l-89.16,103.34
		c-13.16-2.64-27.33,1.69-36.72,12.58c-9.9,11.48-11.82,27.13-6.27,40.2l21.57-25l25.67,22.15l-21.57,25
		c13.74,3.58,28.95-0.61,38.85-12.09C1685.21,1007.86,1687.42,993.21,1682.88,980.58z"/>
	<g>
		<path class="st19" d="M219.04,1004.57l0.36-0.26c11.73-8.4,28.05-5.69,36.44,6.04l74.79,104.51l-42.84,30.66L213,1041.01
			C204.61,1029.28,207.31,1012.96,219.04,1004.57z"/>
		
			<rect x="281.03" y="1128.6" transform="matrix(-0.8132 0.582 -0.582 -0.8132 1231.4183 1878.9336)" class="st19" width="66.27" height="16.99"/>
		<polygon class="st19" points="439.67,1324.14 445.2,1320.19 450.73,1316.23 442.31,1292.31 431.56,1289.21 324.75,1139.97 
			319.11,1144 313.46,1148.04 420.27,1297.28 419.74,1308.46 		"/>
	</g>
	<g>
		
			<rect x="599.74" y="463.04" transform="matrix(0.9878 -0.156 0.156 0.9878 -74.9222 102.9601)" class="st19" width="37.77" height="131.72"/>
		
			<rect x="604.4" y="593.88" transform="matrix(0.9878 -0.156 0.156 0.9878 -85.8969 105.5819)" class="st19" width="50.97" height="12.59"/>
		
			<rect x="619.79" y="606.21" transform="matrix(0.9878 -0.156 0.156 0.9878 -88.4962 106.2588)" class="st19" width="26.27" height="21.79"/>
		
			<rect x="616.24" y="627.84" transform="matrix(0.9878 -0.156 0.156 0.9878 -90.7988 106.8154)" class="st19" width="38.08" height="8.35"/>
		
			<rect x="598.17" y="452.78" transform="matrix(0.9878 -0.156 0.156 0.9878 -64.0498 100.351)" class="st19" width="18.64" height="11.14"/>
		<line class="st19" x1="606.62" y1="452.85" x2="598.46" y2="401.19"/>
	</g>
	<g>
		<path class="st19" d="M1203.5,374.87c9.48,12.4,7.12,30.15-5.29,39.63c-12.4,9.48-30.15,7.12-39.63-5.29
			c-9.48-12.4-7.12-30.15,5.29-39.63C1176.28,360.1,1194.02,362.46,1203.5,374.87z"/>
		<path class="st19" d="M1261.24,349.18l-17.82-23.31l-21.7,12.54c-4.47-3.4-9.3-6.17-14.36-8.32l0.09-25.07l-29.08-3.88
			l-6.48,24.22c-5.45,0.74-10.83,2.16-16.04,4.26l-17.66-17.79l-23.31,17.82l12.54,21.7c-3.4,4.47-6.17,9.3-8.32,14.36l-25.07-0.09
			l-3.88,29.08l24.22,6.48c0.74,5.45,2.16,10.83,4.26,16.04l-17.79,17.66l17.82,23.31l21.7-12.54c4.47,3.4,9.3,6.17,14.36,8.32
			l-0.09,25.07l29.08,3.88l6.48-24.22c5.45-0.74,10.83-2.16,16.04-4.26l17.66,17.79l23.31-17.82l-12.54-21.7
			c3.4-4.47,6.17-9.3,8.32-14.36l25.07,0.09l3.88-29.08l-24.22-6.48c-0.74-5.45-2.16-10.83-4.26-16.04L1261.24,349.18z"/>
	</g>
	<g>
		<path class="st19" d="M1698.72,583.37l-30-24.23l-33.93,42.01l30,24.23c11.6,9.37,28.6,7.56,37.97-4.04
			C1712.13,609.74,1710.32,592.74,1698.72,583.37z"/>
		<path class="st19" d="M1638.71,534.9c-11.6-9.37-28.6-7.56-37.97,4.04c-9.37,11.6-7.56,28.6,4.04,37.97l30,24.23l33.93-42.01
			L1638.71,534.9z"/>
	</g>
</g>
</svg>
