<?xml version="1.0" encoding="utf-8"?>
<!-- Generator: Adobe Illustrator 23.0.1, SVG Export Plug-In . SVG Version: 6.00 Build 0)  -->
<svg version="1.1" xmlns="http://www.w3.org/2000/svg" xmlns:xlink="http://www.w3.org/1999/xlink" x="0px" y="0px"
	 viewBox="0 0 2500 2500" style="enable-background:new 0 0 2500 2500;" xml:space="preserve">
<style type="text/css">
	.st0{display:none;}
	.st1{display:inline;fill:#005AE6;}
	.st2{fill:#003C99;}
	.st3{fill:#80B2FF;}
	.st4{fill:#C0DAFF;}
	.st5{fill:#66A2FF;}
	.st6{fill:#0046B3;}
	.st7{fill:#D1F5FF;}
	.st8{fill:#FF9F34;}
	.st9{fill:none;stroke:#B3D1FF;stroke-width:4;stroke-linejoin:round;stroke-miterlimit:10;}
	.st10{fill:none;stroke:#003880;stroke-width:4;stroke-miterlimit:10;}
	.st11{fill:#FFFFFF;}
	.st12{fill:#0050CC;}
	.st13{fill:#005CEA;}
	.st14{fill:#4D4D4D;}
	.st15{fill:#D9FFFF;}
	.st16{fill:#4D93FF;}
	.st17{fill:#F7A58E;}
	.st18{fill:#00050D;}
	.st19{fill:#E6856A;}
</style>
<g id="BG" class="st0">
	<rect class="st1" width="2500" height="2500"/>
</g>
<g id="shadow">
</g>
<g id="elements">
</g>
<g id="phone">
</g>
<g id="shield">
</g>
<g id="lady">
	<g>
		<path class="st2" d="M2374.77,2408.15H157.31c-8.49,0-15.38-6.89-15.38-15.38l0,0c0-8.49,6.88-15.38,15.38-15.38h2217.45
			c8.49,0,15.38,6.89,15.38,15.38l0,0C2390.14,2401.27,2383.26,2408.15,2374.77,2408.15z"/>
		<g id="cloud_1_">
			<g>
				<path class="st3" d="M165.61,745.77c0.11-1.45,0.19-2.9,0.19-4.38c0-30.85-25.01-55.85-55.85-55.85s-55.85,25.01-55.85,55.85
					c0,1.47,0.07,2.93,0.19,4.38H165.61z"/>
				<path class="st3" d="M349.1,745.77c0.11-1.45,0.19-2.9,0.19-4.38c0-30.85-25.01-55.85-55.85-55.85
					c-30.85,0-55.85,25.01-55.85,55.85c0,1.47,0.07,2.93,0.19,4.38H349.1z"/>
				<path class="st3" d="M396.62,745.77c0.16-1.44,0.25-2.9,0.25-4.38c0-21.81-17.68-39.49-39.49-39.49
					c-21.81,0-39.49,17.68-39.49,39.49c0,1.48,0.09,2.94,0.25,4.38H396.62z"/>
				<path class="st3" d="M284.85,745.77c0.43-3.41,0.66-6.88,0.66-10.41c0-45.19-36.63-81.82-81.82-81.82
					c-45.19,0-81.82,36.63-81.82,81.82c0,3.53,0.22,7,0.66,10.41H284.85z"/>
			</g>
			<g>
				<path class="st3" d="M1541.79,107.6c0.11-1.45,0.19-2.9,0.19-4.38c0-30.85-25.01-55.85-55.85-55.85
					c-30.85,0-55.85,25.01-55.85,55.85c0,1.47,0.07,2.93,0.19,4.38H1541.79z"/>
				<path class="st3" d="M1725.28,107.6c0.11-1.45,0.19-2.9,0.19-4.38c0-30.85-25.01-55.85-55.85-55.85s-55.85,25.01-55.85,55.85
					c0,1.47,0.07,2.93,0.19,4.38H1725.28z"/>
				<path class="st3" d="M1661.03,107.6c0.43-3.41,0.66-6.88,0.66-10.41c0-45.19-36.63-81.82-81.82-81.82s-81.82,36.63-81.82,81.82
					c0,3.53,0.22,7,0.66,10.41H1661.03z"/>
			</g>
		</g>
		<g id="card_1_">
			<path class="st4" d="M1248.37,748.92h-20.12c-1.49,0-2.69-1.21-2.69-2.69c0-1.49,1.21-2.69,2.69-2.69h20.12
				c1.49,0,2.69,1.21,2.69,2.69C1251.07,747.71,1249.86,748.92,1248.37,748.92z M1208.13,748.92H1188c-1.49,0-2.69-1.21-2.69-2.69
				c0-1.49,1.21-2.69,2.69-2.69h20.12c1.49,0,2.69,1.21,2.69,2.69C1210.82,747.71,1209.61,748.92,1208.13,748.92z M1167.88,748.92
				h-20.12c-1.49,0-2.69-1.21-2.69-2.69c0-1.49,1.21-2.69,2.69-2.69h20.12c1.49,0,2.69,1.21,2.69,2.69
				C1170.58,747.71,1169.37,748.92,1167.88,748.92z M1127.64,748.92h-20.12c-1.49,0-2.69-1.21-2.69-2.69c0-1.49,1.21-2.69,2.69-2.69
				h20.12c1.49,0,2.69,1.21,2.69,2.69C1130.33,747.71,1129.13,748.92,1127.64,748.92z M1087.39,748.92h-20.12
				c-1.49,0-2.69-1.21-2.69-2.69c0-1.49,1.21-2.69,2.69-2.69h20.12c1.49,0,2.69,1.21,2.69,2.69
				C1090.09,747.71,1088.88,748.92,1087.39,748.92z M1047.15,748.92h-20.12c-1.49,0-2.69-1.21-2.69-2.69c0-1.49,1.21-2.69,2.69-2.69
				h20.12c1.49,0,2.69,1.21,2.69,2.69C1049.84,747.71,1048.64,748.92,1047.15,748.92z M1006.91,748.92h-20.12
				c-1.49,0-2.69-1.21-2.69-2.69c0-1.49,1.21-2.69,2.69-2.69h20.12c1.49,0,2.69,1.21,2.69,2.69
				C1009.6,747.71,1008.39,748.92,1006.91,748.92z M966.66,748.92h-20.12c-1.49,0-2.69-1.21-2.69-2.69c0-1.49,1.21-2.69,2.69-2.69
				h20.12c1.49,0,2.69,1.21,2.69,2.69C969.36,747.71,968.15,748.92,966.66,748.92z M926.42,748.92h-20.12
				c-1.49,0-2.69-1.21-2.69-2.69c0-1.49,1.21-2.69,2.69-2.69h20.12c1.49,0,2.69,1.21,2.69,2.69
				C929.11,747.71,927.91,748.92,926.42,748.92z M886.17,748.92h-20.12c-1.49,0-2.69-1.21-2.69-2.69c0-1.49,1.21-2.69,2.69-2.69
				h20.12c1.49,0,2.69,1.21,2.69,2.69C888.87,747.71,887.66,748.92,886.17,748.92z M845.93,748.92h-20.12
				c-1.49,0-2.69-1.21-2.69-2.69c0-1.49,1.21-2.69,2.69-2.69h20.12c1.49,0,2.69,1.21,2.69,2.69
				C848.62,747.71,847.42,748.92,845.93,748.92z M805.68,748.92h-20.12c-1.49,0-2.69-1.21-2.69-2.69c0-1.49,1.21-2.69,2.69-2.69
				h20.12c1.49,0,2.69,1.21,2.69,2.69C808.38,747.71,807.17,748.92,805.68,748.92z M765.44,748.92h-20.12
				c-1.49,0-2.69-1.21-2.69-2.69c0-1.49,1.21-2.69,2.69-2.69h20.12c1.49,0,2.69,1.21,2.69,2.69
				C768.13,747.71,766.93,748.92,765.44,748.92z M725.2,748.92h-20.12c-1.49,0-2.69-1.21-2.69-2.69c0-1.49,1.21-2.69,2.69-2.69
				h20.12c1.49,0,2.69,1.21,2.69,2.69C727.89,747.71,726.68,748.92,725.2,748.92z M684.95,748.92h-20.12
				c-1.49,0-2.69-1.21-2.69-2.69c0-1.49,1.21-2.69,2.69-2.69h20.12c1.49,0,2.69,1.21,2.69,2.69
				C687.65,747.71,686.44,748.92,684.95,748.92z M644.71,748.92h-20.12c-1.49,0-2.69-1.21-2.69-2.69c0-1.49,1.21-2.69,2.69-2.69
				h20.12c1.49,0,2.69,1.21,2.69,2.69C647.4,747.71,646.2,748.92,644.71,748.92z M604.46,748.92h-20.12c-1.49,0-2.69-1.21-2.69-2.69
				c0-1.49,1.21-2.69,2.69-2.69h20.12c1.49,0,2.69,1.21,2.69,2.69C607.16,747.71,605.95,748.92,604.46,748.92z M564.22,748.92H544.1
				c-1.49,0-2.69-1.21-2.69-2.69c0-1.49,1.21-2.69,2.69-2.69h20.12c1.49,0,2.69,1.21,2.69,2.69
				C566.91,747.71,565.71,748.92,564.22,748.92z M523.97,748.92h-3.28c-6.37,0-12.49-2.24-17.24-6.31c-1.13-0.97-1.26-2.67-0.29-3.8
				c0.97-1.13,2.67-1.26,3.8-0.29c3.77,3.23,8.64,5.02,13.73,5.02h3.28c1.49,0,2.69,1.21,2.69,2.69
				C526.67,747.71,525.46,748.92,523.97,748.92z M1267.45,744.15c-0.82,0-1.62-0.37-2.15-1.07c-0.9-1.19-0.66-2.88,0.52-3.77
				c4.9-3.7,7.71-9.23,7.72-15.16c0-1.49,1.21-2.69,2.69-2.69c0,0,0,0,0.01,0c1.49,0,2.69,1.21,2.69,2.7
				c-0.01,7.63-3.61,14.72-9.86,19.44C1268.59,743.97,1268.02,744.15,1267.45,744.15z M497.53,725.42c-1.49,0-2.69-1.21-2.69-2.69
				v-20.12c0-1.49,1.21-2.69,2.69-2.69s2.69,1.21,2.69,2.69v20.12C500.22,724.22,499.02,725.42,497.53,725.42z M1276.25,706.73
				c-1.49,0-2.69-1.21-2.69-2.69v-20.12c0-1.49,1.21-2.69,2.69-2.69c1.49,0,2.69,1.21,2.69,2.69v20.12
				C1278.94,705.52,1277.73,706.73,1276.25,706.73z M497.53,685.18c-1.49,0-2.69-1.21-2.69-2.69v-20.12c0-1.49,1.21-2.69,2.69-2.69
				s2.69,1.21,2.69,2.69v20.12C500.22,683.97,499.02,685.18,497.53,685.18z M1276.25,666.48c-1.49,0-2.69-1.21-2.69-2.69v-20.12
				c0-1.49,1.21-2.69,2.69-2.69c1.49,0,2.69,1.21,2.69,2.69v20.12C1278.94,665.28,1277.73,666.48,1276.25,666.48z M497.53,644.93
				c-1.49,0-2.69-1.21-2.69-2.69v-20.12c0-1.49,1.21-2.69,2.69-2.69s2.69,1.21,2.69,2.69v20.12
				C500.22,643.73,499.02,644.93,497.53,644.93z M1276.25,626.24c-1.49,0-2.69-1.21-2.69-2.69v-20.12c0-1.49,1.21-2.69,2.69-2.69
				c1.49,0,2.69,1.21,2.69,2.69v20.12C1278.94,625.03,1277.73,626.24,1276.25,626.24z M497.53,604.69c-1.49,0-2.69-1.21-2.69-2.69
				v-20.12c0-1.49,1.21-2.69,2.69-2.69s2.69,1.21,2.69,2.69V602C500.22,603.48,499.02,604.69,497.53,604.69z M1276.25,586
				c-1.49,0-2.69-1.21-2.69-2.69v-20.12c0-1.49,1.21-2.69,2.69-2.69c1.49,0,2.69,1.21,2.69,2.69v20.12
				C1278.94,584.79,1277.73,586,1276.25,586z M497.53,564.45c-1.49,0-2.69-1.21-2.69-2.69v-20.12c0-1.49,1.21-2.69,2.69-2.69
				s2.69,1.21,2.69,2.69v20.12C500.22,563.24,499.02,564.45,497.53,564.45z M1276.25,545.75c-1.49,0-2.69-1.21-2.69-2.69v-20.12
				c0-1.49,1.21-2.69,2.69-2.69c1.49,0,2.69,1.21,2.69,2.69v20.12C1278.94,544.55,1277.73,545.75,1276.25,545.75z M497.53,524.2
				c-1.49,0-2.69-1.21-2.69-2.69v-20.12c0-1.49,1.21-2.69,2.69-2.69s2.69,1.21,2.69,2.69v20.12
				C500.22,523,499.02,524.2,497.53,524.2z M1276.25,505.51c-1.49,0-2.69-1.21-2.69-2.69v-20.12c0-1.49,1.21-2.69,2.69-2.69
				c1.49,0,2.69,1.21,2.69,2.69v20.12C1278.94,504.3,1277.73,505.51,1276.25,505.51z M497.53,483.96c-1.49,0-2.69-1.21-2.69-2.69
				v-20.12c0-1.49,1.21-2.69,2.69-2.69s2.69,1.21,2.69,2.69v20.12C500.22,482.75,499.02,483.96,497.53,483.96z M1276.25,465.26
				c-1.49,0-2.69-1.21-2.69-2.69v-20.12c0-1.49,1.21-2.69,2.69-2.69c1.49,0,2.69,1.21,2.69,2.69v20.12
				C1278.94,464.06,1277.73,465.26,1276.25,465.26z M497.53,443.71c-1.49,0-2.69-1.21-2.69-2.69V420.9c0-1.49,1.21-2.69,2.69-2.69
				s2.69,1.21,2.69,2.69v20.12C500.22,442.51,499.02,443.71,497.53,443.71z M1276.25,425.02c-1.49,0-2.69-1.21-2.69-2.69V402.2
				c0-1.49,1.21-2.69,2.69-2.69c1.49,0,2.69,1.21,2.69,2.69v20.12C1278.94,423.81,1277.73,425.02,1276.25,425.02z M497.53,403.47
				c-1.49,0-2.69-1.21-2.69-2.69v-20.12c0-1.49,1.21-2.69,2.69-2.69s2.69,1.21,2.69,2.69v20.12
				C500.22,402.26,499.02,403.47,497.53,403.47z M1276.25,384.77c-1.49,0-2.69-1.21-2.69-2.69v-20.12c0-1.49,1.21-2.69,2.69-2.69
				c1.49,0,2.69,1.21,2.69,2.69v20.12C1278.94,383.57,1277.73,384.77,1276.25,384.77z M497.53,363.23c-1.49,0-2.69-1.21-2.69-2.69
				v-20.12c0-1.49,1.21-2.74,2.69-2.74s2.69,1.16,2.69,2.65v20.22C500.22,362.02,499.02,363.23,497.53,363.23z M1276.25,344.53
				c-1.49,0-2.69-1.21-2.69-2.69v-1.43c0-5.46-2.45-10.7-6.71-14.38c-1.13-0.97-1.25-2.67-0.28-3.8c0.97-1.13,2.67-1.25,3.8-0.28
				c5.45,4.7,8.58,11.43,8.58,18.46v1.43C1278.94,343.32,1277.73,344.53,1276.25,344.53z M506.36,325.73
				c-0.82,0-1.63-0.37-2.15-1.07c-0.89-1.19-0.66-2.88,0.53-3.77c4.59-3.46,10.11-5.28,15.95-5.28h4.76c1.49,0,2.69,1.21,2.69,2.69
				c0,1.49-1.21,2.69-2.69,2.69h-4.76c-4.67,0-9.06,1.45-12.71,4.2C507.5,325.55,506.93,325.73,506.36,325.73z M1249.85,320.99
				h-20.12c-1.49,0-2.69-1.21-2.69-2.69c0-1.49,1.21-2.69,2.69-2.69h20.12c1.49,0,2.69,1.21,2.69,2.69
				C1252.54,319.78,1251.34,320.99,1249.85,320.99z M1209.6,320.99h-20.12c-1.49,0-2.69-1.21-2.69-2.69c0-1.49,1.21-2.69,2.69-2.69
				h20.12c1.49,0,2.69,1.21,2.69,2.69C1212.3,319.78,1211.09,320.99,1209.6,320.99z M1169.36,320.99h-20.12
				c-1.49,0-2.69-1.21-2.69-2.69c0-1.49,1.21-2.69,2.69-2.69h20.12c1.49,0,2.69,1.21,2.69,2.69
				C1172.05,319.78,1170.85,320.99,1169.36,320.99z M1129.12,320.99h-20.12c-1.49,0-2.69-1.21-2.69-2.69c0-1.49,1.21-2.69,2.69-2.69
				h20.12c1.49,0,2.69,1.21,2.69,2.69C1131.81,319.78,1130.6,320.99,1129.12,320.99z M1088.87,320.99h-20.12
				c-1.49,0-2.69-1.21-2.69-2.69c0-1.49,1.21-2.69,2.69-2.69h20.12c1.49,0,2.69,1.21,2.69,2.69
				C1091.57,319.78,1090.36,320.99,1088.87,320.99z M1048.63,320.99h-20.12c-1.49,0-2.69-1.21-2.69-2.69c0-1.49,1.21-2.69,2.69-2.69
				h20.12c1.49,0,2.69,1.21,2.69,2.69C1051.32,319.78,1050.12,320.99,1048.63,320.99z M1008.38,320.99h-20.12
				c-1.49,0-2.69-1.21-2.69-2.69c0-1.49,1.21-2.69,2.69-2.69h20.12c1.49,0,2.69,1.21,2.69,2.69
				C1011.08,319.78,1009.87,320.99,1008.38,320.99z M968.14,320.99h-20.12c-1.49,0-2.69-1.21-2.69-2.69c0-1.49,1.21-2.69,2.69-2.69
				h20.12c1.49,0,2.69,1.21,2.69,2.69C970.83,319.78,969.63,320.99,968.14,320.99z M927.89,320.99h-20.12
				c-1.49,0-2.69-1.21-2.69-2.69c0-1.49,1.21-2.69,2.69-2.69h20.12c1.49,0,2.69,1.21,2.69,2.69
				C930.59,319.78,929.38,320.99,927.89,320.99z M887.65,320.99h-20.12c-1.49,0-2.69-1.21-2.69-2.69c0-1.49,1.21-2.69,2.69-2.69
				h20.12c1.49,0,2.69,1.21,2.69,2.69C890.34,319.78,889.14,320.99,887.65,320.99z M847.41,320.99h-20.12
				c-1.49,0-2.69-1.21-2.69-2.69c0-1.49,1.21-2.69,2.69-2.69h20.12c1.49,0,2.69,1.21,2.69,2.69
				C850.1,319.78,848.89,320.99,847.41,320.99z M807.16,320.99h-20.12c-1.49,0-2.69-1.21-2.69-2.69c0-1.49,1.21-2.69,2.69-2.69
				h20.12c1.49,0,2.69,1.21,2.69,2.69C809.86,319.78,808.65,320.99,807.16,320.99z M766.92,320.99h-20.12
				c-1.49,0-2.69-1.21-2.69-2.69c0-1.49,1.21-2.69,2.69-2.69h20.12c1.49,0,2.69,1.21,2.69,2.69
				C769.61,319.78,768.41,320.99,766.92,320.99z M726.67,320.99h-20.12c-1.49,0-2.69-1.21-2.69-2.69c0-1.49,1.21-2.69,2.69-2.69
				h20.12c1.49,0,2.69,1.21,2.69,2.69C729.37,319.78,728.16,320.99,726.67,320.99z M686.43,320.99h-20.12
				c-1.49,0-2.69-1.21-2.69-2.69c0-1.49,1.21-2.69,2.69-2.69h20.12c1.49,0,2.69,1.21,2.69,2.69
				C689.12,319.78,687.92,320.99,686.43,320.99z M646.18,320.99h-20.12c-1.49,0-2.69-1.21-2.69-2.69c0-1.49,1.21-2.69,2.69-2.69
				h20.12c1.49,0,2.69,1.21,2.69,2.69C648.88,319.78,647.67,320.99,646.18,320.99z M605.94,320.99h-20.12
				c-1.49,0-2.69-1.21-2.69-2.69c0-1.49,1.21-2.69,2.69-2.69h20.12c1.49,0,2.69,1.21,2.69,2.69
				C608.64,319.78,607.43,320.99,605.94,320.99z M565.7,320.99h-20.12c-1.49,0-2.69-1.21-2.69-2.69c0-1.49,1.21-2.69,2.69-2.69
				h20.12c1.49,0,2.69,1.21,2.69,2.69C568.39,319.78,567.18,320.99,565.7,320.99z"/>
			<path class="st5" d="M1304.28,683.65l-715.41,0c-15.06,0-27.27-12.21-27.27-27.27V250.46c0-15.06,12.21-27.27,27.27-27.27
				l715.41,0c15.06,0,27.27,12.21,27.27,27.27v405.92C1331.55,671.44,1319.34,683.65,1304.28,683.65z"/>
			<rect x="561.6" y="310.15" class="st6" width="769.95" height="79.45"/>
			<path class="st7" d="M737.96,595.31l-113.21,0c-7.2,0-13.03,5.83-13.03,13.03v0c0,7.2,5.83,13.03,13.03,13.03h113.21
				c7.2,0,13.03-5.83,13.03-13.03l0,0C750.99,601.14,745.16,595.31,737.96,595.31z"/>
			<path class="st7" d="M912.05,595.31H798.85c-7.2,0-13.03,5.83-13.03,13.03l0,0c0,7.2,5.83,13.03,13.03,13.03h113.21
				c7.2,0,13.03-5.83,13.03-13.03l0,0C925.08,601.14,919.25,595.31,912.05,595.31z"/>
			<path class="st7" d="M1086.14,595.31H972.94c-7.2,0-13.03,5.83-13.03,13.03l0,0c0,7.2,5.83,13.03,13.03,13.03l113.21,0
				c7.2,0,13.03-5.83,13.03-13.03v0C1099.17,601.14,1093.34,595.31,1086.14,595.31z"/>
			<path class="st7" d="M1260.23,595.31l-113.21,0c-7.2,0-13.03,5.83-13.03,13.03v0c0,7.2,5.83,13.03,13.03,13.03h113.21
				c7.2,0,13.03-5.83,13.03-13.03l0,0C1273.26,601.14,1267.43,595.31,1260.23,595.31z"/>
			<path class="st7" d="M619.54,246.56L619.54,246.56c-7.94,0-14.38,6.44-14.38,14.38v5.05c0,7.94,6.44,14.38,14.38,14.38l0,0
				c7.94,0,14.38-6.44,14.38-14.38v-5.05C633.92,253,627.48,246.56,619.54,246.56z"/>
			<path class="st7" d="M650.52,263.47L650.52,263.47c0,9.34,7.57,16.91,16.91,16.91h59.92c9.34,0,16.91-7.57,16.91-16.91l0,0
				c0-9.34-7.57-16.91-16.91-16.91h-59.92C658.09,246.56,650.52,254.13,650.52,263.47z"/>
			<path class="st8" d="M636.18,432.35h90.35c8.83,0,15.98,7.15,15.98,15.98v79.68c0,8.83-7.15,15.98-15.98,15.98l-90.35,0
				c-8.83,0-15.98-7.15-15.98-15.98v-79.68C620.2,439.5,627.36,432.35,636.18,432.35z"/>
		</g>
		<g id="Gear_1_">
			<g>
				<path class="st9" d="M2146.49,589.88c9.03-35.64,10.52-71.65,5.36-105.97l10.9-1.64l21.53-3.22l0.27-0.06
					c-5.84-39.29-19.27-76.74-39.37-110.31l-28.36,16.89c-18.2-30.38-42.19-57.3-71.22-78.64l19.69-26.6
					c-30.7-22.93-66.44-40.27-105.86-50.26l-8.14,32.12c-35.77-9.06-71.65-10.52-105.97-5.36l-4.92-32.71
					c-39.29,5.84-76.77,19.39-110.31,39.37l16.9,28.36c-30.38,18.2-57.3,42.19-78.64,71.22l-26.6-19.69
					c-22.93,30.7-40.27,66.44-50.26,105.86l32.12,8.14c-9.06,35.77-10.52,71.65-5.36,105.97l-23.14,3.46l-9.44,1.49l-0.12-0.03
					c5.84,39.28,19.39,76.77,39.37,110.31l28.36-16.89c18.2,30.38,42.31,57.33,71.34,78.67l-19.69,26.6
					c30.7,22.93,66.32,40.24,105.74,50.23l8.14-32.12c35.77,9.06,71.77,10.55,106.09,5.39l3.78,25.43l1.13,7.28
					c39.29-5.84,76.65-19.42,110.19-39.4l-16.89-28.36c30.38-18.2,57.33-42.31,78.79-71.31l26.6,19.69
					c22.81-30.73,40.12-66.35,50.11-105.77L2146.49,589.88z M1849.08,665.6c-78.47-19.88-125.88-99.48-106-177.95
					c19.85-78.35,99.45-125.76,177.92-105.87c78.35,19.85,125.76,99.45,105.9,177.8C2007.02,638.04,1927.42,685.45,1849.08,665.6z"
					/>
			</g>
			<g>
				<path class="st9" d="M2272.69,883.54c-12.06-15.14-26.68-27.24-42.71-36.01l2.79-5.09l5.51-10.05l0.06-0.13
					c-18.33-10.07-38.3-16.38-58.78-18.65l-1.96,17.27c-18.53-2.05-37.46-0.58-55.65,4.79l-4.88-16.73
					c-19.39,5.56-38.05,15.02-54.79,28.35l10.87,13.64c-15.2,12.1-27.24,26.68-36.01,42.71l-15.28-8.36
					c-10.07,18.33-16.34,38.35-18.65,58.78l17.27,1.96c-2.05,18.53-0.58,37.46,4.79,55.65l-16.73,4.88
					c5.56,19.39,15.02,38.05,28.35,54.8l13.65-10.87c12.1,15.2,26.68,27.24,42.71,36.01l-5.93,10.8l-2.38,4.43l-0.05,0.04
					c18.33,10.07,38.35,16.34,58.78,18.65l1.96-17.27c18.53,2.05,37.51,0.54,55.7-4.83l4.88,16.73c19.39-5.56,38-14.98,54.74-28.31
					l-10.87-13.65c15.2-12.1,27.29-26.72,36.07-42.75l11.86,6.52l3.41,1.84c10.07-18.33,16.28-38.31,18.6-58.74l-17.27-1.96
					c2.05-18.53,0.54-37.51-4.78-55.75l16.73-4.88c-5.61-19.35-15.03-37.96-28.37-54.7L2272.69,883.54z M2209.66,1032.32
					c-33.34,26.55-81.81,21.06-108.36-12.27c-26.51-33.29-21.02-81.76,12.32-108.31c33.29-26.51,81.75-21.02,108.27,12.26
					C2248.43,957.34,2242.94,1005.81,2209.66,1032.32z"/>
			</g>
			<g>
				<path class="st10" d="M1041.48,1678.65c-13.92-17.48-30.79-31.43-49.29-41.56l3.22-5.88l6.36-11.6l0.07-0.15
					c-21.15-11.62-44.2-18.9-67.83-21.52l-2.26,19.93c-21.38-2.37-43.23-0.66-64.22,5.53l-5.63-19.3
					c-22.38,6.42-43.91,17.33-63.23,32.72l12.54,15.75c-17.54,13.97-31.43,30.79-41.56,49.28l-17.63-9.65
					c-11.62,21.15-18.85,44.26-21.52,67.83l19.93,2.26c-2.37,21.38-0.66,43.23,5.53,64.22l-19.3,5.63
					c6.42,22.38,17.33,43.91,32.72,63.23l15.75-12.54c13.97,17.54,30.79,31.43,49.28,41.56l-6.84,12.47l-2.75,5.11l-0.06,0.05
					c21.15,11.62,44.26,18.85,67.83,21.52l2.26-19.93c21.38,2.37,43.29,0.62,64.28-5.58l5.63,19.3
					c22.38-6.42,43.85-17.28,63.17-32.67l-12.54-15.75c17.53-13.97,31.49-30.84,41.62-49.33l13.69,7.52l3.94,2.13
					c11.62-21.15,18.79-44.21,21.46-67.78l-19.93-2.26c2.37-21.38,0.62-43.29-5.52-64.33l19.3-5.63
					c-6.48-22.33-17.34-43.8-32.73-63.13L1041.48,1678.65z M968.75,1850.34c-38.47,30.64-94.4,24.31-125.05-14.16
					c-30.59-38.41-24.26-94.34,14.21-124.99c38.41-30.59,94.34-24.26,124.94,14.15C1013.49,1763.82,1007.16,1819.75,968.75,1850.34z
					"/>
			</g>
		</g>
		<g id="phone_1_">
			<path class="st5" d="M1883.82,520.77c-15.61-92.45-157.98-134.19-155.19-73.85l-652.67,3.82c-45.21,0.26-81.86,40.93-81.9,90.88
				l-1.35,1716.52c-0.04,51.74,37.25,94.05,83.32,94.45l666.27,5.72c4.13,8.68,11.88,16.59,24.07,23.18
				c76.41,1.63,113.06-36.11,126.45-78.77c4.36-11.45,6.73-24.1,6.62-37.44C1896.77,2242.94,1888.65,542.45,1883.82,520.77z"/>
			<path class="st11" d="M1759.25,2381.77l-764.78-4.93c-47.72-0.31-86.33-43.76-86.24-97l2.87-1765.29
				c0.08-51.34,38.07-93.04,84.88-93.2l749.93-2.44c47.17-0.15,85.75,41.49,86.14,93.07l13.59,1773.45
				C1846.05,2338.92,1807.36,2382.08,1759.25,2381.77z"/>
			<path d="M1769.81,2368.93c-3.18,0.43-6.43,0.63-9.66,0.6l-764.55-5.78c-41.01-0.31-74.53-38.4-74.46-84.88l2.64-1763.35
				c0.07-44.82,33.06-81.4,73.28-81.57l749.88-3.26c1.17,0,2.36,0.02,3.52,0.07c18.87,0.88,36.51,9.47,49.69,24.18
				c13.47,15.04,20.97,34.96,21.13,56.14l13.41,1775.25C1835,2328.41,1807.21,2363.91,1769.81,2368.93z"/>
			<polygon class="st12" points="1794.98,520.01 1807.87,2289.07 946.58,2283.92 948.77,520.01 			"/>
		</g>
		<g id="login">
			<path class="st8" d="M1495.31,1410.2h-230.58c-19.51,0-35.47-15.96-35.47-35.47l0,0c0-19.51,15.96-35.47,35.47-35.47h230.58
				c19.51,0,35.47,15.96,35.47,35.47l0,0C1530.79,1394.24,1514.82,1410.2,1495.31,1410.2z"/>
			<path class="st11" d="M1680.95,1146.87h-616.67c-13.88,0-25.24-11.36-25.24-25.24v-20.46c0-13.88,11.36-25.24,25.24-25.24h616.67
				c13.88,0,25.24,11.36,25.24,25.24v20.46C1706.19,1135.51,1694.84,1146.87,1680.95,1146.87z"/>
			<path class="st11" d="M1670.72,1261.11h-596.2c-19.51,0-35.47-15.96-35.47-35.47l0,0c0-19.51,15.96-35.47,35.47-35.47h596.2
				c19.51,0,35.47,15.96,35.47,35.47l0,0C1706.19,1245.15,1690.23,1261.11,1670.72,1261.11z"/>
			<g>
				<path class="st3" d="M1185.85,1228.79c0,6.9-5.59,12.49-12.49,12.49s-12.49-5.59-12.49-12.49c0-6.9,5.59-12.49,12.49-12.49
					S1185.85,1221.89,1185.85,1228.79z"/>
				
					<ellipse transform="matrix(0.208 -0.9781 0.9781 0.208 -238.7151 2162.7524)" class="st3" cx="1216.18" cy="1228.79" rx="12.49" ry="12.49"/>
				
					<ellipse transform="matrix(0.7071 -0.7071 0.7071 0.7071 -500.1321 1250.1476)" class="st3" cx="1259" cy="1228.79" rx="12.49" ry="12.49"/>
				
					<ellipse transform="matrix(0.7071 -0.7071 0.7071 0.7071 -487.591 1280.4246)" class="st3" cx="1301.81" cy="1228.79" rx="12.49" ry="12.49"/>
				
					<ellipse transform="matrix(0.9239 -0.3827 0.3827 0.9239 -367.8827 608.1054)" class="st3" cx="1344.63" cy="1228.79" rx="12.49" ry="12.49"/>
				
					<ellipse transform="matrix(0.2298 -0.9732 0.9732 0.2298 -127.2372 2296.802)" class="st3" cx="1387.45" cy="1228.79" rx="12.49" ry="12.49"/>
				
					<ellipse transform="matrix(0.7071 -0.7071 0.7071 0.7071 -449.9675 1371.2557)" class="st3" cx="1430.27" cy="1228.79" rx="12.49" ry="12.49"/>
				
					<ellipse transform="matrix(0.7071 -0.7071 0.7071 0.7071 -437.4263 1401.5327)" class="st3" cx="1473.09" cy="1228.79" rx="12.49" ry="12.49"/>
				
					<ellipse transform="matrix(0.9239 -0.3827 0.3827 0.9239 -354.8453 673.6488)" class="st3" cx="1515.9" cy="1228.79" rx="12.49" ry="12.49"/>
			</g>
			<g>
				
					<ellipse transform="matrix(0.7071 -0.7071 0.7071 0.7071 -191.603 1216.6476)" class="st11" cx="1372.82" cy="839.61" rx="137.05" ry="137.05"/>
				<g>
					<g>
						<path class="st13" d="M1373.02,834.09c13.38,0,25.73-6.52,33.62-16.47c5.83-7.2,9.26-16.47,9.26-26.76
							c0-23.67-19.22-43.23-42.89-43.23c-24.02,0-43.23,19.56-43.23,43.23c0,10.29,3.43,19.56,9.26,26.76
							C1346.94,827.58,1359.29,834.09,1373.02,834.09z"/>
					</g>
					<path class="st13" d="M1448.98,911.13c0,27.28-152.35,27.28-152.35,0l0.05-31.79c6.02-43.46,139.92-45.29,152.33,0
						L1448.98,911.13z"/>
				</g>
			</g>
			<path class="st14" d="M1104.09,1219.1v-1.9c0-7.7-6.26-13.96-13.96-13.96c-7.7,0-13.96,6.26-13.96,13.96v1.9h-2.12v25.16
				c0,4.35,32.24,4.35,32.24,0v-25.16H1104.09z M1081.15,1217.2c0-4.83,2.98-9.21,8.98-9.21c6,0,9.08,4.1,9.08,9.21v1.9h-18.06
				V1217.2z M1092.51,1231.77v7.27c0,1.31-1.12,2.24-2.42,2.24c-1.31,0-2.23-0.93-2.23-2.24v-7.27c-1.31-0.75-2.24-2.05-2.24-3.73
				c0-2.42,2.05-4.47,4.47-4.47c2.42,0,4.47,2.05,4.47,4.47C1094.56,1229.72,1093.62,1231.03,1092.51,1231.77z"/>
			<g>
				<g>
					<g>
						<path class="st14" d="M1090.17,1108.82c2.82,0,5.43-1.38,7.1-3.48c1.23-1.52,1.96-3.48,1.96-5.65c0-5-4.06-9.12-9.05-9.12
							c-5.07,0-9.12,4.13-9.12,9.12c0,2.17,0.72,4.13,1.96,5.65C1084.66,1107.45,1087.27,1108.82,1090.17,1108.82z"/>
					</g>
					<path class="st14" d="M1106.2,1125.08c0,5.76-32.31,5.76-32.31,0l0.17-6.71c1.27-9.17,29.53-9.56,32.14,0L1106.2,1125.08z"/>
				</g>
				<path class="st3" d="M1299,1121.8h-130.65c-5.72,0-10.41-4.68-10.41-10.41l0,0c0-5.72,4.68-10.41,10.41-10.41H1299
					c5.73,0,10.41,4.68,10.41,10.41l0,0C1309.41,1117.12,1304.73,1121.8,1299,1121.8z"/>
				<path class="st3" d="M1471.32,1121.8h-130.65c-5.73,0-10.41-4.68-10.41-10.41l0,0c0-5.72,4.68-10.41,10.41-10.41h130.65
					c5.73,0,10.41,4.68,10.41,10.41l0,0C1481.73,1117.12,1477.05,1121.8,1471.32,1121.8z"/>
			</g>
		</g>
		<g id="key">
			<path class="st11" d="M1196.91,1776.17v258.45c0,28.72,351.42,28.72,351.42,0v-258.45H1196.91z"/>
			<g>
				
					<ellipse transform="matrix(0.2298 -0.9732 0.9732 0.2298 -766.4038 2779.1826)" class="st13" cx="1372.62" cy="1873.79" rx="43.39" ry="43.39"/>
				<path class="st13" d="M1377.75,2004.45h-10.26c-6.99,0-12.65-5.67-12.65-12.65v-104.64h35.57v104.64
					C1390.41,1998.79,1384.74,2004.45,1377.75,2004.45z"/>
			</g>
			<path class="st11" d="M1517.53,1757.75h-35.57v-17.4c0-60.3-49.05-109.35-109.34-109.35c-60.3,0-109.35,49.05-109.35,109.35v17.4
				h-35.57v-17.4c0-79.91,65.01-144.92,144.92-144.92c79.9,0,144.91,65.01,144.91,144.92V1757.75z"/>
		</g>
		<g>
			<g>
				<g>
					<path class="st15" d="M1666.5,1464.48L1666.5,1464.48c0.01-1.37,0.01-1.98,0.01-2.11
						C1666.51,1462.62,1666.5,1464.48,1666.5,1464.48z"/>
					<path class="st15" d="M1666.5,1464.48L1666.5,1464.48c0.01-1.37,0.01-1.98,0.01-2.11
						C1666.51,1462.62,1666.5,1464.48,1666.5,1464.48z"/>
					<path class="st15" d="M2484.96,1468.14c0,0,0.01-1.86,0.01-2.11C2484.97,1466.17,2484.97,1466.77,2484.96,1468.14
						L2484.96,1468.14z"/>
					<path class="st15" d="M2484.96,1468.14c0,0,0.01-1.86,0.01-2.11C2484.97,1466.17,2484.97,1466.77,2484.96,1468.14
						L2484.96,1468.14z"/>
					<path class="st11" d="M2077.25,1272.16c-90.6,97.05-235.17,176.59-389.87,210.47c-0.05,10.33-0.3,67.58-1.48,331.42
						c-1.57,351.97,333.39,523.97,385.4,550.36c50.39-23.19,389.58-194.92,391.16-546.89c1.18-263.85,1.44-321.09,1.48-331.42
						C2309.53,1450.83,2166.98,1370.01,2077.25,1272.16z"/>
				</g>
			</g>
			<g>
				<path class="st3" d="M2076.43,1310.33c-93.4,85.68-222.8,153.02-365.08,189.73l-1.4,313.94
					c-0.64,143.65,56.42,273.6,169.62,386.26c74.38,74.02,152.58,119.93,192.26,140.57c1.71-0.87,3.58-1.84,5.42-2.8V1311.06
					C2076.98,1310.81,2076.69,1310.58,2076.43,1310.33z"/>
				<path class="st16" d="M2077.25,1311.06v1026.96c41.26-21.47,116.26-65.84,188.08-136.05
					c114.19-111.64,172.42-241.08,173.06-384.72l1.4-313.94C2298.25,1465.45,2169.81,1397.22,2077.25,1311.06z"/>
			</g>
			<path class="st6" d="M2362.34,1625.73c-108.32,16.7-255.83,115.5-348.89,234.3c-13.05-56.01-71.65-107.15-102.31-118.33
				l-92.88,93.36c57.99,26.13,121.37,100.18,129.77,175.99l92.78,14.38c39.12-77.27,140.15-262.1,341.14-361.49
				C2378.08,1648.81,2363.89,1627.89,2362.34,1625.73z"/>
		</g>
		<g>
			<path class="st17" d="M597.76,1062.15l-16.34,65.66l-2.97,12.21c-3.3,15.51-105.75,8.91-98.49-9.24l6.11-13.36l31.51-69.13
				L597.76,1062.15z"/>
			<g>
				<g>
					<path class="st17" d="M657.66,964.74c1.04,71.2-32.01,129.09-83.73,128.84c-51.72-0.25-101.76-44.13-103.57-129.75
						c-1.15-54.55,42.41-98.58,94.13-98.33C616.21,865.75,656.86,910.19,657.66,964.74z"/>
				</g>
				<path d="M566.05,845.93c0,0,103.06,5.09,111.63,83.14c11.44,68.5-39.95,18.14-60.93,64.11c-24.03,52.66,0.46,91.19,31.7,101.66
					c-27.77,38.77-186.56,37.38-227.43-30.65C393.02,978.85,432.62,850.66,566.05,845.93z"/>
				<path class="st17" d="M638.31,990.36c0.86,10.57-7.01,19.83-17.58,20.69c-10.57,0.86-19.83-7.01-20.69-17.58
					c-0.86-10.57,7.01-19.83,17.58-20.69S637.45,979.79,638.31,990.36z"/>
			</g>
			<path class="st11" d="M622.52,2314.94c4.83-5.12,27.62-5.2,29.7,2.37c2.08,7.57-1.93,12.97,7.68,24.97
				c-5.53,1.6-25.16,1.75-31.17,0C622.72,2340.53,617.69,2320.06,622.52,2314.94z"/>
			<path class="st18" d="M584.87,2340.8h55.53c5.19-234.98,4.2-490.78,2.33-683.44c-0.67-68.99-2.58-103.89-15.08-145.31
				c-25.27-83.64-144.1-57.89-152.53,17.92c-3.51,42.07-6.09,124.14,71.69,403.02C513.12,2055.79,571.88,2203,584.87,2340.8z"/>
			<path class="st11" d="M671.5,2344.38c-8.18-0.44-27.28-8.31-30.88-13.75c-5.31,5.93-16.36,7.57-29.7,5.58
				c-15.76-2.35-17.84-9.67-29.14-8.7c-4.77,13.25-16.37,42.98-5.17,49.88c0,0,66.22,0,116.75,0
				C703.78,2367.88,703.51,2347.56,671.5,2344.38z"/>
			<g>
				<path class="st11" d="M339.81,2320.88c4.06-4.3,23.21-4.37,24.96,1.99c1.75,6.36-1.63,10.9,6.45,20.98
					c-4.65,1.34-21.15,1.47-26.2,0S335.75,2325.18,339.81,2320.88z"/>
				<path class="st18" d="M522.81,1527.84c-11.36-86.63-165.48-77.73-175.72-2.09c-3.7,40.7-15.01,101.97,13.95,404.3
					c-61.1,115.38-43.83,280.92-62.08,402.79c-2.02,18.54,50.51,23,54.59,6.47c55.97-226.09,134.19-479.76,163.27-667.86
					C527.37,1603.25,528.43,1570.74,522.81,1527.84z"/>
				<path class="st11" d="M381.13,2340.8c-8.18-0.44-20.24-11.08-23.84-16.52c-5.31,5.93-15.44,13.93-28.78,11.93
					c-15.76-2.35-17.84-9.67-29.14-8.7c-4.77,13.25-16.37,42.98-5.17,49.88c0,0,63.03,0,113.57,0
					C418.19,2367.88,413.14,2343.98,381.13,2340.8z"/>
			</g>
			<g>
				<path class="st17" d="M782.73,1069.29l-28.75,6.38c0.65,15.13-1.16,39.28,0,65.96l48.34-6.37
					C794.97,1108.4,787.87,1084.86,782.73,1069.29z"/>
				<path class="st11" d="M753.98,1141.62c-1.07,52.86-2.48,75.51-2.92,96.33l-143.44-92c-43.71-13.27-94.68,73.25-39.41,112.28
					c0,0,191.02,107.86,233.99,76.79c23.25-16.81,17.22-137.38,0.12-199.78L753.98,1141.62z"/>
				<g>
					<path class="st17" d="M795.72,1041.17c-13.28-15.57-42.45-10.14-44.66-9.72l2.8,43.08c0.65,21.27,27.04,22,37.78,3.66
						C791.65,1078.19,807.22,1056.51,795.72,1041.17z"/>
					<path class="st17" d="M765.17,1035.52c-9.68-46.93-19.45-40.64-19.45-40.64s1.57,16.58,5.94,45.84
						C754.94,1057.3,766.37,1047.31,765.17,1035.52z"/>
				</g>
			</g>
			<path id="XMLID_2_" class="st11" d="M641.52,1269.59c9.74-47.4,14.96-94.2-33.89-123.63c-28.97-17.45-122.08-29.91-165.61-15.5
				c-43.87,19.61-34.38,105.11-42.6,240.14c-30.23,67.38-43.37,89.52-52.32,155.15c0,0,16.17,49.45,130.11,49.52
				c51.73,0.03,127.93-4.57,162.59-30.96c-3.46-44.76-22.17-87.88-29.97-151.24C609.82,1393.06,640.81,1275.03,641.52,1269.59z"/>
			<g>
				<g>
					<path class="st11" d="M418.61,1139.99c-53.47,40.83-105.63,105.03-130.28,139.12c-24.65,34.09-88.5,171.11-88.5,171.11
						l40.63,29.96l109.91-149.76l134.28-110.14C531.25,1172.72,470.7,1100.22,418.61,1139.99z"/>
					<path class="st17" d="M182.81,1484.97l26.34-54.42c6.2,16.37,36.35,31.29,45.01,30.98c0,0-28.32,40.76-35.25,47.68
						C211.98,1516.14,183.38,1504.41,182.81,1484.97z"/>
				</g>
				<g>
					<path class="st17" d="M225.57,1500.12c-0.1,0.41,0.01,0.96-0.09,1.36c-1.32,19.8-16.54,29.18-20.66,31.4
						c-0.33,0.26-0.69,0.34-1.06,0.42c14.32-2.87,18.61,16.32,11.32,20.74c-21.07,14.26-51.1-5.36-53.64-17.25
						c-2.58-12.08,21.42-52.04,21.42-52.04C195.1,1474.85,226.44,1476.39,225.57,1500.12z"/>
					<path class="st19" d="M225.48,1501.48c-0.85,22.38-21.02,31.59-21.38,31.67c-11.8-0.33-16.01-1.04-27.27-1.01
						c7.35-3.59,22.43-13.12,16.59-31.64C204.96,1491.66,222.32,1499.38,225.48,1501.48z"/>
					<path class="st17" d="M225.78,1498.93c3.1,18.48,1.79,44.8-2.6,56.39c0,0-11.33,0.59-10.27-20.8
						c0.28-5.57-0.53-17.66-6.03-21.68c-16.96-11.21-19.69-21.49-13.47-29.92C201.7,1471.68,225.13,1483.09,225.78,1498.93z"/>
					<path class="st17" d="M173.3,1549.43c9.2,6.38,33.55,18.75,37.4,15.69c3.84-3.05-15.63-23.78-28.2-26.52
						C169.93,1535.86,168.59,1546.16,173.3,1549.43z"/>
				</g>
			</g>
		</g>
	</g>
</g>
</svg>
